<?xml version="1.0" standalone="no"?>
<!DOCTYPE svg PUBLIC "-//W3C//DTD SVG 20010904//EN"
 "http://www.w3.org/TR/2001/REC-SVG-20010904/DTD/svg10.dtd">
<svg version="1.0" xmlns="http://www.w3.org/2000/svg"
 width="6000.000000pt" height="4019.000000pt" viewBox="0 0 6000.000000 4019.000000"
 preserveAspectRatio="xMidYMid meet">

<g transform="translate(0.000000,4019.000000) scale(0.100000,-0.100000)"
fill="#000000" stroke="none">
<path d="M24199 38650 c-26 -29 -30 -30 -109 -30 -76 0 -84 -2 -102 -25 -19
-24 -24 -25 -133 -25 -109 0 -113 -1 -129 -25 -16 -24 -22 -25 -105 -25 -84 0
-90 -1 -105 -25 -16 -24 -20 -25 -129 -25 l-113 0 -22 -30 c-22 -29 -24 -30
-112 -30 -50 0 -90 -4 -90 -9 0 -26 -34 -41 -90 -41 -51 0 -60 -3 -74 -25 -15
-23 -22 -25 -102 -25 -83 0 -87 -1 -114 -30 -27 -29 -32 -30 -110 -30 -76 0
-84 -2 -102 -25 -17 -22 -27 -25 -78 -25 -51 0 -60 -3 -74 -25 -15 -22 -23
-25 -80 -25 -57 0 -65 -3 -80 -25 -16 -24 -22 -25 -106 -25 -82 0 -90 -2 -101
-22 -16 -31 -28 -38 -65 -38 -23 0 -36 -7 -48 -25 -15 -22 -23 -25 -80 -25
-57 0 -64 -2 -74 -25 -11 -23 -17 -25 -76 -25 -57 0 -65 -3 -80 -25 -12 -18
-25 -25 -49 -25 -24 0 -40 -8 -59 -30 -20 -23 -35 -30 -62 -30 -20 0 -36 -4
-36 -9 0 -26 -34 -41 -90 -41 -51 0 -60 -3 -74 -25 -12 -18 -25 -25 -49 -25
-24 0 -40 -8 -59 -30 -20 -23 -35 -30 -62 -30 -20 0 -36 -4 -36 -9 0 -20 -33
-41 -65 -41 -24 0 -37 -7 -49 -25 -12 -18 -25 -25 -49 -25 -24 0 -40 -8 -59
-30 -18 -20 -36 -30 -55 -30 -20 0 -31 -7 -38 -22 -9 -20 -19 -23 -79 -26 -59
-3 -69 -6 -73 -23 -6 -22 -40 -39 -79 -39 -14 0 -27 -7 -31 -17 -9 -26 -23
-33 -63 -33 -27 0 -38 -5 -45 -22 -8 -18 -20 -24 -53 -26 -35 -3 -45 -8 -52
-28 -5 -13 -16 -24 -25 -24 -9 0 -20 -11 -24 -24 -11 -26 -30 -36 -72 -36 -16
0 -29 -4 -29 -9 0 -20 -33 -41 -65 -41 -24 0 -37 -7 -49 -25 -13 -20 -25 -25
-56 -25 -22 0 -40 -4 -40 -10 0 -23 -41 -50 -75 -50 -24 0 -35 -5 -35 -15 0
-19 -31 -35 -70 -35 -20 0 -33 -6 -37 -17 -9 -26 -23 -33 -64 -33 -29 0 -38
-5 -42 -21 -3 -11 -14 -23 -25 -26 -11 -3 -23 -15 -26 -28 -6 -23 -31 -35 -76
-35 -17 0 -29 -8 -35 -22 -8 -18 -20 -24 -51 -26 -32 -2 -44 -8 -52 -28 -7
-13 -19 -24 -27 -24 -9 0 -20 -11 -24 -24 -7 -18 -19 -24 -52 -29 -24 -3 -45
-11 -47 -17 -9 -25 -36 -40 -72 -40 -30 0 -39 -4 -43 -21 -3 -11 -14 -23 -24
-25 -10 -3 -23 -15 -28 -27 -8 -17 -20 -23 -52 -25 -24 -2 -43 -7 -43 -13 0
-22 -41 -49 -75 -49 -25 0 -35 -4 -35 -15 0 -9 -11 -20 -24 -26 -13 -6 -29
-22 -35 -35 -9 -20 -18 -24 -51 -24 -34 0 -42 -4 -50 -25 -5 -14 -16 -25 -24
-25 -9 0 -21 -10 -27 -22 -16 -31 -28 -38 -70 -38 -29 0 -38 -5 -42 -21 -3
-11 -14 -23 -24 -25 -10 -3 -23 -15 -28 -27 -8 -17 -20 -23 -51 -25 -32 -2
-44 -8 -52 -28 -7 -13 -18 -24 -26 -24 -8 0 -21 -12 -28 -27 -11 -23 -21 -29
-54 -31 -32 -2 -44 -8 -52 -28 -7 -13 -19 -24 -27 -24 -9 0 -20 -11 -25 -25
-8 -21 -16 -25 -50 -25 -33 0 -42 -4 -52 -25 -6 -14 -17 -25 -25 -25 -7 0 -19
-11 -25 -25 -6 -13 -20 -27 -30 -31 -11 -3 -23 -17 -28 -30 -8 -20 -16 -24
-54 -24 -36 0 -45 -4 -49 -21 -3 -11 -15 -23 -26 -26 -12 -3 -21 -9 -21 -14 0
-21 -42 -49 -74 -49 -26 0 -35 -5 -39 -21 -3 -11 -14 -23 -25 -26 -11 -3 -22
-14 -25 -25 -3 -11 -15 -22 -26 -25 -11 -3 -23 -14 -27 -25 -3 -10 -16 -24
-28 -29 -12 -6 -26 -20 -31 -32 -8 -17 -20 -23 -51 -25 -32 -2 -44 -8 -52 -28
-7 -13 -18 -24 -26 -24 -8 0 -21 -14 -30 -30 -13 -28 -13 -33 2 -60 9 -17 24
-30 33 -30 9 0 24 -11 35 -24 10 -14 28 -27 41 -31 13 -3 33 -17 45 -30 12
-14 28 -25 36 -25 8 0 30 -11 48 -25 18 -14 42 -25 53 -25 11 0 33 -11 49 -25
17 -14 40 -25 51 -25 26 0 81 -27 81 -40 0 -5 25 -12 55 -15 32 -4 66 -16 82
-28 16 -13 49 -24 86 -28 34 -4 71 -16 86 -27 18 -13 49 -21 99 -24 51 -4 82
-11 100 -25 20 -15 51 -22 122 -27 65 -5 105 -14 128 -27 20 -11 52 -19 80
-19 80 0 215 -20 247 -37 21 -11 78 -18 193 -24 113 -5 184 -14 230 -28 54
-16 110 -21 296 -26 242 -6 418 -19 476 -35 21 -6 331 -10 770 -10 587 0 754
3 830 14 90 14 390 31 695 40 78 2 169 11 205 20 40 10 138 18 255 22 105 3
206 10 225 15 19 4 53 13 75 18 22 6 119 15 215 20 118 7 187 15 212 25 22 10
97 20 185 27 83 6 174 19 208 29 33 10 110 21 170 25 64 4 134 15 167 26 31
10 107 23 170 28 62 5 130 17 152 26 21 9 87 20 147 25 71 6 117 15 133 25 15
10 65 21 128 27 58 6 120 18 143 28 22 11 76 22 120 26 44 3 100 15 124 26 24
11 81 23 126 27 47 5 91 15 106 24 14 10 64 22 110 28 46 5 102 18 124 29 22
10 69 21 104 25 35 4 78 15 95 25 17 10 60 22 96 26 35 4 86 18 111 31 27 13
65 23 89 23 25 0 56 8 75 20 17 11 66 25 108 31 43 6 77 15 77 19 0 12 47 29
102 36 29 4 65 16 79 27 15 10 53 22 86 26 38 4 70 15 88 29 18 15 42 22 69
22 29 0 53 8 74 24 19 13 54 26 84 30 28 4 62 16 75 26 14 10 45 22 71 26 26
4 57 15 70 25 13 10 43 21 67 25 24 3 59 17 76 30 19 13 47 24 65 24 17 0 43
9 56 20 14 10 45 24 68 29 24 5 56 19 72 31 16 12 46 24 66 27 20 3 44 12 54
20 9 8 37 21 63 28 25 8 58 23 72 35 14 11 35 20 47 20 12 0 37 11 55 24 18
13 47 27 65 30 18 4 41 15 51 26 10 11 33 22 51 26 18 3 47 17 65 30 18 13 41
24 50 24 10 0 30 11 46 24 15 13 42 26 59 30 18 4 40 16 50 27 9 10 25 19 35
19 10 0 30 11 46 24 15 13 45 29 66 35 20 7 37 16 37 21 0 4 17 15 38 23 20 8
45 24 56 35 10 12 31 24 46 27 15 3 36 15 46 26 9 10 22 19 29 19 6 0 27 11
46 25 69 52 105 75 132 86 15 6 27 15 27 20 0 5 17 18 38 29 49 27 102 66 116
85 6 9 20 21 32 28 11 7 35 21 53 32 19 11 43 30 54 43 11 12 25 22 31 22 6 0
22 11 36 25 14 14 88 81 165 149 138 122 192 176 310 310 33 38 70 78 83 89
12 11 22 26 22 33 0 7 10 20 21 28 12 8 27 23 33 33 6 11 20 34 31 52 11 19
32 47 48 63 15 16 27 35 27 42 0 7 9 21 19 30 11 10 23 32 26 48 4 16 18 39
31 50 12 12 26 33 29 48 3 16 15 36 26 46 12 11 19 30 19 56 0 37 -1 38 -38
38 -25 0 -50 -9 -71 -24 -18 -13 -47 -27 -65 -30 -18 -4 -41 -15 -51 -25 -9
-11 -34 -22 -56 -26 -21 -4 -49 -15 -62 -25 -13 -10 -40 -21 -60 -25 -20 -4
-48 -16 -61 -26 -13 -10 -42 -22 -64 -27 -22 -5 -52 -19 -67 -30 -14 -11 -44
-24 -67 -27 -23 -4 -54 -15 -68 -25 -14 -10 -41 -21 -61 -24 -19 -4 -51 -17
-69 -31 -22 -16 -47 -25 -71 -25 -21 0 -47 -8 -62 -20 -13 -11 -49 -25 -78
-31 -30 -6 -61 -17 -69 -25 -9 -7 -40 -18 -70 -25 -30 -6 -68 -19 -85 -29 -16
-10 -52 -23 -80 -28 -27 -6 -68 -20 -90 -32 -21 -11 -51 -20 -65 -20 -14 0
-45 -11 -70 -24 -25 -13 -66 -26 -91 -29 -26 -4 -62 -15 -80 -26 -19 -11 -56
-23 -84 -27 -27 -4 -69 -18 -94 -30 -26 -14 -61 -24 -85 -24 -23 0 -58 -9 -78
-20 -20 -11 -67 -24 -105 -30 -37 -6 -81 -19 -98 -29 -16 -10 -57 -21 -90 -25
-33 -4 -79 -16 -103 -27 -23 -12 -70 -23 -105 -27 -34 -3 -84 -16 -112 -29
-30 -14 -69 -23 -98 -23 -27 0 -72 -10 -105 -24 -34 -14 -89 -26 -135 -30 -42
-3 -87 -12 -100 -20 -27 -17 -114 -36 -166 -36 -21 0 -59 -9 -85 -20 -29 -13
-78 -23 -134 -27 -49 -3 -108 -14 -137 -26 -31 -12 -93 -22 -164 -28 -62 -5
-119 -13 -126 -19 -19 -16 -159 -40 -231 -40 -39 0 -89 -8 -126 -21 -42 -14
-98 -22 -182 -26 -68 -3 -154 -14 -196 -24 -49 -13 -139 -23 -260 -29 -108 -5
-210 -16 -245 -25 -44 -12 -143 -19 -365 -26 -168 -5 -332 -13 -365 -19 -156
-25 -382 -33 -770 -27 -300 5 -416 10 -465 21 -43 10 -120 15 -225 16 -190 0
-371 16 -433 37 -25 8 -109 18 -192 23 -109 6 -157 13 -181 26 -22 11 -73 20
-138 26 -72 5 -116 14 -143 28 -22 11 -58 20 -84 20 -97 0 -174 39 -174 87 0
8 56 71 125 139 94 92 132 124 151 124 18 0 52 27 130 105 92 92 109 105 139
105 25 0 35 5 40 19 3 11 14 23 24 26 10 3 23 17 29 30 6 14 18 25 26 25 9 0
21 10 27 23 16 29 28 37 61 37 20 0 41 14 76 50 35 36 57 50 76 50 19 0 42 15
81 55 39 39 63 55 81 55 19 0 41 15 75 50 40 42 54 50 84 50 28 0 38 5 47 25
9 20 19 25 45 25 28 0 43 9 87 55 41 43 59 55 83 55 22 0 35 7 47 25 12 18 25
25 49 25 24 0 40 8 59 30 19 22 35 30 58 30 22 0 38 8 52 25 14 18 29 25 53
25 24 0 37 7 49 25 12 19 25 25 51 25 26 0 39 6 51 25 12 18 25 25 49 25 31 0
40 5 73 45 7 8 27 15 43 15 24 0 42 11 78 50 37 39 54 50 78 50 22 0 35 7 47
25 15 22 23 25 81 25 57 0 66 3 76 23 16 30 28 37 65 37 23 0 36 7 48 25 12
18 25 25 50 25 25 0 38 7 50 25 12 18 25 25 49 25 24 0 40 8 59 30 20 23 35
30 63 30 25 0 35 4 33 13 -3 9 -42 13 -139 14 l-134 3 -26 -30z"/>
<path d="M37337 37144 c-9 -10 3 -57 18 -69 6 -5 20 -26 30 -45 10 -19 26 -46
36 -59 11 -13 19 -31 19 -41 0 -9 9 -25 19 -34 11 -10 23 -32 27 -50 3 -17 17
-49 29 -71 13 -22 27 -58 30 -80 4 -22 18 -63 32 -91 24 -51 24 -54 21 -300
-3 -230 -5 -252 -24 -294 -12 -25 -27 -71 -33 -102 -7 -31 -18 -62 -26 -68 -7
-6 -17 -30 -20 -53 -4 -23 -18 -55 -31 -70 -13 -16 -24 -37 -24 -48 0 -11 -11
-31 -24 -44 -14 -13 -28 -35 -32 -47 -4 -13 -17 -35 -30 -50 -12 -16 -25 -37
-29 -48 -3 -11 -10 -20 -15 -20 -5 0 -18 -15 -27 -34 -18 -35 -85 -117 -135
-167 -16 -15 -28 -30 -28 -34 0 -7 -267 -271 -323 -320 -104 -90 -143 -122
-166 -136 -14 -9 -32 -23 -40 -32 -7 -10 -18 -17 -23 -17 -6 0 -19 -11 -30
-25 -11 -14 -24 -25 -30 -25 -6 0 -25 -12 -44 -27 -63 -53 -92 -73 -103 -73
-6 0 -18 -11 -27 -24 -8 -14 -30 -30 -49 -36 -18 -6 -41 -20 -50 -30 -10 -11
-24 -20 -31 -20 -7 0 -19 -8 -26 -19 -7 -10 -29 -27 -49 -37 -78 -41 -124 -67
-129 -74 -3 -4 -24 -17 -47 -29 -24 -12 -43 -25 -43 -30 0 -4 -17 -16 -37 -25
-21 -9 -60 -30 -88 -46 -27 -16 -69 -38 -91 -50 -23 -11 -44 -27 -47 -34 -3
-8 -24 -20 -47 -26 -23 -6 -49 -19 -60 -30 -10 -10 -31 -21 -48 -25 -16 -3
-38 -15 -48 -26 -9 -10 -25 -19 -34 -19 -10 0 -33 -10 -52 -23 -18 -13 -49
-29 -66 -35 -18 -6 -45 -20 -59 -32 -14 -11 -33 -20 -42 -20 -10 0 -32 -11
-50 -24 -18 -13 -47 -27 -65 -30 -18 -4 -41 -15 -51 -26 -10 -11 -33 -22 -51
-26 -18 -3 -43 -15 -56 -25 -12 -11 -33 -22 -47 -25 -14 -3 -50 -16 -78 -30
-29 -13 -76 -35 -105 -48 -29 -13 -82 -38 -118 -55 -36 -17 -72 -31 -81 -31
-9 0 -24 -9 -34 -20 -9 -10 -41 -24 -70 -30 -30 -6 -59 -17 -65 -25 -7 -8 -28
-17 -49 -21 -20 -3 -52 -17 -71 -29 -19 -13 -51 -26 -70 -30 -19 -4 -48 -18
-63 -31 -16 -14 -42 -24 -59 -24 -17 0 -45 -9 -62 -19 -17 -11 -54 -25 -81
-31 -27 -6 -57 -17 -65 -25 -8 -8 -37 -19 -63 -25 -27 -6 -61 -19 -75 -30 -15
-12 -46 -23 -67 -27 -22 -3 -60 -17 -84 -30 -24 -13 -54 -23 -66 -23 -12 0
-35 -10 -50 -22 -16 -12 -51 -25 -81 -29 -30 -4 -65 -16 -79 -27 -13 -11 -45
-23 -71 -27 -25 -3 -66 -17 -91 -31 -25 -13 -60 -24 -78 -24 -18 0 -44 -9 -58
-20 -15 -12 -52 -25 -83 -30 -31 -5 -64 -16 -74 -25 -9 -8 -43 -20 -74 -26
-32 -6 -72 -19 -89 -29 -17 -11 -52 -22 -77 -26 -25 -4 -65 -17 -90 -30 -25
-13 -61 -24 -80 -24 -20 0 -53 -11 -75 -25 -22 -13 -55 -25 -73 -25 -18 0 -59
-11 -92 -25 -33 -14 -72 -25 -87 -25 -15 0 -51 -11 -80 -24 -29 -14 -74 -28
-100 -32 -26 -3 -68 -17 -93 -30 -26 -14 -62 -24 -85 -24 -22 0 -57 -9 -76
-19 -20 -11 -65 -25 -100 -31 -35 -6 -77 -19 -94 -28 -16 -8 -59 -21 -95 -28
-36 -7 -90 -22 -120 -33 -30 -11 -71 -21 -90 -21 -19 0 -51 -10 -70 -21 -19
-12 -64 -25 -102 -30 -37 -5 -79 -16 -93 -25 -13 -8 -55 -20 -92 -24 -37 -5
-88 -18 -113 -29 -25 -11 -70 -23 -100 -26 -30 -4 -76 -15 -102 -26 -25 -10
-78 -23 -118 -29 -39 -5 -81 -17 -94 -25 -12 -8 -57 -19 -99 -25 -43 -5 -91
-16 -107 -25 -16 -9 -67 -21 -112 -27 -46 -6 -100 -20 -122 -30 -21 -11 -73
-23 -115 -27 -46 -5 -88 -15 -105 -26 -16 -11 -58 -21 -109 -26 -45 -4 -96
-15 -114 -24 -17 -8 -68 -20 -113 -25 -46 -5 -102 -19 -125 -30 -25 -12 -79
-24 -126 -29 -46 -5 -104 -17 -129 -26 -25 -9 -81 -20 -125 -25 -44 -4 -98
-15 -119 -25 -22 -9 -82 -21 -133 -26 -51 -5 -107 -16 -123 -24 -17 -9 -77
-22 -133 -29 -56 -8 -122 -22 -147 -31 -25 -9 -79 -19 -120 -22 -41 -3 -107
-16 -147 -29 -47 -16 -94 -24 -137 -24 -41 0 -88 -8 -124 -20 -31 -11 -104
-25 -161 -31 -57 -5 -113 -15 -125 -21 -35 -19 -137 -37 -208 -38 -44 0 -86
-7 -120 -21 -35 -14 -91 -24 -163 -29 -64 -5 -126 -15 -150 -25 -25 -11 -86
-20 -165 -25 -69 -5 -141 -15 -160 -24 -41 -17 -169 -36 -244 -36 -28 0 -79
-9 -111 -21 -42 -15 -101 -24 -195 -29 -78 -5 -153 -15 -177 -24 -25 -9 -104
-20 -190 -25 -96 -6 -162 -16 -187 -26 -27 -12 -93 -20 -210 -26 -93 -6 -175
-14 -181 -18 -21 -18 -125 -33 -275 -40 -85 -4 -164 -12 -175 -18 -33 -17 -83
-23 -281 -33 -129 -6 -203 -14 -234 -25 -32 -11 -109 -19 -274 -26 -125 -5
-236 -13 -245 -18 -32 -18 -178 -32 -376 -37 -121 -3 -224 -11 -261 -20 -78
-18 -311 -33 -524 -34 -153 -1 -205 -5 -380 -30 -36 -5 -339 -14 -675 -20
-722 -11 -1044 -19 -1053 -24 -4 -2 -135 0 -292 5 -157 5 -526 13 -820 18
-439 8 -546 13 -595 26 -43 11 -137 18 -330 25 -229 7 -280 12 -335 29 -48 15
-92 21 -170 21 -135 0 -270 15 -312 33 -20 9 -94 18 -185 24 -114 7 -158 14
-177 27 -20 12 -60 19 -154 24 -94 6 -136 13 -162 27 -25 13 -66 20 -143 25
-85 5 -113 11 -135 27 -21 15 -49 21 -126 26 -75 4 -105 10 -125 25 -18 13
-52 21 -106 26 -48 4 -90 14 -105 24 -14 9 -47 22 -75 27 l-50 11 3 77 3 77
120 120 c106 106 124 120 154 120 25 0 35 5 40 19 3 11 15 23 25 26 10 3 22
14 25 24 3 10 16 23 29 29 13 6 27 20 31 31 5 16 15 21 41 21 30 0 44 9 88 55
41 43 59 55 83 55 22 0 35 7 47 25 12 18 25 25 49 25 24 0 40 8 59 30 19 22
35 30 58 30 22 0 38 8 52 25 14 18 29 25 53 25 24 0 37 7 49 25 12 19 25 25
51 25 26 0 39 6 51 25 14 22 23 25 78 25 58 0 64 2 84 30 17 23 30 30 56 30
25 0 38 7 50 25 15 22 23 25 81 25 36 0 65 4 65 9 0 26 34 41 90 41 52 0 62 3
76 25 15 22 23 25 80 25 55 0 65 3 75 23 18 34 27 37 122 37 48 0 87 4 87 9 0
26 34 41 90 41 51 0 60 3 74 25 15 23 22 25 102 25 83 0 87 1 114 30 27 29 31
30 114 30 47 0 86 4 86 9 0 5 7 17 16 25 12 13 39 16 129 16 109 0 113 1 129
25 16 24 20 25 130 25 110 0 114 1 130 25 16 25 18 25 154 25 l138 0 26 30 26
30 140 0 c132 0 141 1 147 20 6 19 22 26 73 32 12 2 24 8 25 13 1 6 -82 12
-226 15 -188 4 -229 8 -237 20 -5 8 -10 18 -10 23 0 11 -2820 9 -2820 -2 0 -5
-7 -17 -16 -25 -13 -14 -49 -16 -234 -16 l-218 0 -16 -25 c-16 -25 -18 -25
-154 -25 l-138 0 -26 -30 c-26 -30 -27 -30 -133 -30 -102 0 -109 -1 -131 -25
-21 -23 -30 -25 -107 -25 -79 0 -86 -2 -101 -25 -16 -24 -22 -25 -105 -25 -84
0 -90 -1 -105 -25 -12 -18 -25 -25 -49 -25 -24 0 -40 -8 -59 -30 -24 -27 -32
-30 -87 -30 -34 0 -61 -4 -61 -9 0 -20 -33 -41 -65 -41 -24 0 -37 -7 -49 -25
-12 -19 -25 -25 -51 -25 -26 0 -39 -6 -51 -25 -12 -18 -25 -25 -48 -25 -23 0
-41 -9 -59 -27 -14 -16 -32 -33 -39 -40 -7 -7 -19 -18 -25 -25 -18 -19 -32
-33 -90 -92 -41 -41 -53 -60 -53 -84 0 -23 -7 -36 -25 -48 -14 -9 -25 -22 -25
-28 0 -7 -11 -22 -25 -34 -14 -12 -25 -29 -25 -37 0 -8 -11 -17 -24 -21 -21
-5 -25 -13 -28 -52 -3 -40 -6 -47 -25 -50 -15 -2 -23 -10 -23 -23 0 -11 -10
-23 -24 -29 -13 -5 -27 -18 -31 -29 -3 -12 -17 -24 -30 -27 -14 -3 -25 -15
-27 -27 -2 -14 -11 -23 -25 -25 -20 -3 -23 -9 -23 -48 0 -37 -4 -46 -24 -55
-13 -6 -27 -20 -29 -31 -3 -11 -15 -22 -26 -25 -15 -4 -21 -13 -21 -35 0 -37
-16 -68 -36 -68 -8 0 -19 -11 -24 -24 -5 -13 -18 -27 -28 -30 -11 -4 -22 -16
-25 -27 -3 -11 -15 -23 -26 -26 -16 -4 -21 -13 -21 -38 0 -42 -9 -65 -25 -65
-23 0 -37 -28 -39 -78 -2 -42 -8 -55 -39 -85 -20 -21 -41 -37 -47 -37 -5 0
-10 -5 -10 -10 0 -6 -11 -22 -24 -35 -14 -13 -26 -32 -28 -42 -2 -10 -16 -24
-31 -31 -15 -7 -27 -20 -27 -28 0 -8 -11 -19 -25 -24 -22 -8 -25 -16 -25 -55
0 -39 -3 -45 -24 -51 -15 -3 -27 -15 -30 -30 -4 -15 -14 -24 -26 -24 -17 0
-20 -7 -20 -39 0 -40 -20 -71 -45 -71 -7 0 -15 -10 -17 -22 -2 -15 -11 -24
-26 -26 -19 -3 -22 -9 -22 -48 0 -37 -4 -46 -24 -56 -20 -8 -26 -20 -28 -52
-2 -32 -8 -43 -26 -51 -13 -5 -25 -20 -28 -32 -4 -12 -15 -23 -27 -25 -18 -2
-23 -11 -27 -53 -4 -42 -8 -50 -27 -53 -20 -3 -23 -9 -23 -48 0 -38 -3 -46
-25 -54 -14 -5 -25 -16 -25 -23 0 -8 -11 -27 -24 -42 -13 -16 -27 -43 -31 -62
-3 -18 -10 -33 -15 -33 -19 0 -40 -33 -40 -66 0 -27 -4 -35 -24 -40 -21 -5
-25 -13 -28 -52 -3 -40 -6 -47 -25 -50 -14 -2 -23 -10 -23 -21 0 -32 -22 -81
-36 -81 -7 0 -16 -11 -19 -25 -3 -14 -7 -37 -10 -51 -3 -15 -15 -28 -25 -31
-14 -4 -20 -14 -20 -35 0 -36 -16 -68 -34 -68 -8 0 -16 -17 -19 -42 -3 -26
-14 -49 -26 -60 -12 -9 -21 -20 -21 -25 0 -32 -23 -81 -40 -86 -14 -4 -20 -15
-22 -48 -2 -34 -8 -46 -26 -54 -14 -6 -22 -18 -22 -35 0 -42 -11 -69 -31 -75
-12 -4 -19 -16 -19 -30 0 -35 -18 -75 -33 -75 -32 0 -29 -115 3 -125 10 -3 21
-17 24 -30 4 -14 13 -25 22 -25 9 0 21 -13 27 -30 6 -17 17 -30 24 -30 7 0 17
-10 24 -22 6 -11 36 -44 67 -72 31 -28 67 -63 81 -77 14 -14 34 -28 44 -32 11
-4 21 -16 24 -26 3 -11 15 -21 27 -23 11 -2 25 -13 31 -25 6 -15 22 -25 43
-29 19 -4 40 -17 49 -30 8 -13 24 -24 34 -24 11 0 24 -11 31 -25 8 -18 19 -25
40 -25 18 0 38 -9 51 -24 12 -13 37 -27 55 -31 18 -4 45 -18 59 -31 15 -14 38
-24 54 -24 19 0 34 -8 45 -25 12 -18 25 -25 49 -25 31 0 65 -21 65 -39 0 -5
21 -11 46 -14 25 -2 58 -14 73 -24 14 -11 48 -23 74 -27 34 -5 52 -14 63 -32
14 -20 24 -24 64 -24 37 0 55 -6 78 -25 20 -17 42 -25 66 -25 40 0 106 -24
106 -38 0 -5 32 -12 72 -16 49 -4 79 -13 93 -25 14 -12 48 -21 109 -29 63 -7
93 -15 102 -27 9 -12 37 -19 104 -25 69 -6 98 -14 114 -28 17 -16 41 -21 120
-25 76 -4 105 -10 125 -25 20 -15 51 -20 141 -26 84 -5 126 -13 158 -28 32
-15 74 -22 170 -28 101 -6 136 -12 167 -29 34 -18 57 -21 155 -21 129 0 237
-13 284 -34 21 -10 95 -16 238 -21 142 -4 224 -11 260 -22 39 -11 128 -17 328
-23 332 -10 609 -28 670 -42 29 -7 351 -12 903 -15 835 -4 948 -2 1217 27 52
6 291 15 530 20 319 7 453 14 501 24 71 16 405 36 600 36 78 0 131 5 159 15
47 16 295 35 473 35 75 0 131 6 185 20 58 15 133 23 292 29 154 7 228 14 259
25 31 11 105 19 240 25 132 7 207 14 231 24 46 20 192 37 311 37 63 0 106 5
125 14 33 17 199 36 308 36 43 0 96 8 135 20 43 14 108 23 190 27 81 4 147 13
186 25 38 12 112 22 205 28 88 6 160 15 182 24 38 16 180 36 261 36 26 0 76 9
110 21 39 13 98 23 162 26 59 3 123 13 157 24 33 11 101 21 160 25 58 3 129
14 163 24 33 11 113 24 178 30 68 6 131 17 148 26 17 8 82 20 147 26 70 6 136
18 166 30 30 12 83 21 140 25 50 2 117 13 149 24 31 10 103 23 160 28 58 5
116 16 135 26 19 10 77 21 139 26 59 5 112 14 119 20 21 17 76 30 169 38 50 5
109 16 132 25 23 8 79 18 125 22 49 4 101 15 128 27 26 12 81 23 130 28 47 4
99 15 117 24 18 9 73 20 123 26 50 5 105 16 121 25 17 8 74 21 127 29 53 7
121 23 150 34 31 12 75 21 108 21 34 0 72 8 101 21 25 11 83 24 128 29 49 5
95 16 109 26 15 9 60 20 105 24 47 5 96 17 122 30 24 13 69 24 103 27 34 2 81
13 106 23 25 10 74 22 110 25 36 4 84 16 107 26 23 10 74 23 113 29 39 6 84
17 100 25 15 8 60 20 100 26 40 6 95 22 124 35 29 13 70 24 94 24 24 0 64 10
90 21 25 12 74 25 108 29 34 4 72 15 85 23 13 9 55 21 94 27 38 6 85 19 105
30 19 10 58 21 87 24 28 3 69 14 91 25 21 11 63 23 93 27 30 4 74 17 99 30 28
15 62 24 90 24 27 0 61 9 84 21 21 11 66 25 100 30 33 6 68 17 77 25 9 8 45
20 80 26 35 6 76 20 91 30 15 10 51 22 80 25 29 3 69 14 88 24 20 9 61 22 93
28 31 5 67 17 80 26 13 8 49 20 81 26 31 5 71 18 89 29 18 10 52 21 77 25 25
4 59 15 75 25 17 10 50 21 75 25 25 4 59 15 75 25 17 10 54 23 83 29 29 6 63
17 75 25 12 8 45 20 72 26 28 6 63 20 78 31 15 11 49 24 75 28 26 4 63 17 82
29 19 12 46 22 60 22 14 0 42 9 62 20 21 11 59 25 85 30 25 6 52 18 58 27 6 8
36 19 65 24 30 5 67 17 81 29 15 11 47 22 71 26 24 3 55 14 70 25 15 10 45 22
68 25 23 4 54 17 70 30 16 14 41 24 60 24 17 0 50 11 73 24 23 13 57 27 76 31
18 4 48 15 65 25 17 10 48 22 68 25 21 4 43 13 49 21 6 8 37 21 68 30 31 9 64
25 74 35 10 11 30 19 45 19 15 0 46 9 67 21 22 11 61 27 86 35 26 8 52 21 59
29 7 8 28 18 48 21 20 4 57 18 81 31 24 12 50 23 58 23 8 0 33 11 56 24 23 13
56 27 73 31 18 3 40 15 49 25 10 11 34 22 54 26 20 4 50 14 66 24 17 10 49 23
73 29 23 7 42 15 42 20 0 10 46 31 69 31 9 0 32 11 51 25 19 14 41 25 51 25 9
0 32 11 51 23 19 13 48 27 64 31 16 4 45 18 64 31 19 13 49 26 67 30 17 3 34
13 37 20 3 8 25 20 50 26 25 6 53 20 62 30 10 11 35 22 56 25 23 4 43 14 49
25 6 11 26 21 49 25 22 4 49 17 61 30 12 13 33 24 45 24 12 0 35 11 51 24 15
13 44 27 63 31 19 4 40 16 47 25 7 10 32 22 57 29 24 6 46 17 49 26 4 8 26 20
51 26 25 6 47 17 50 25 3 7 26 19 51 25 25 6 45 15 45 20 0 5 24 21 53 34 73
36 110 54 127 66 8 5 35 19 60 31 24 11 50 26 56 33 7 6 27 18 46 25 18 8 39
22 45 31 7 9 25 20 40 24 16 3 37 15 48 25 11 10 31 21 45 25 14 4 38 18 53
31 16 13 34 24 41 24 7 0 23 11 36 24 12 14 35 28 50 31 15 3 36 15 46 26 9
10 23 19 29 19 7 0 29 14 50 30 21 17 43 30 50 30 6 0 20 9 31 21 10 11 32 27
49 35 54 26 108 62 117 78 5 9 15 16 22 16 14 0 99 53 133 83 12 11 31 25 41
31 35 21 87 54 120 78 85 61 189 138 207 155 11 10 27 23 36 28 37 22 174 129
234 184 11 10 78 67 150 127 124 105 436 409 501 490 18 22 47 57 65 79 19 23
41 49 49 59 8 10 27 31 41 46 14 15 33 38 42 51 9 13 30 42 46 64 17 22 40 57
51 78 11 20 25 37 31 37 5 0 16 15 24 33 8 19 21 39 29 46 8 7 20 28 26 47 6
19 16 34 21 34 5 0 18 19 28 43 10 23 26 48 35 56 9 7 16 21 16 31 0 9 11 33
25 53 13 20 29 54 35 76 5 21 17 44 25 51 8 6 17 32 21 56 3 24 15 56 26 69
11 14 23 49 27 78 4 28 17 68 29 87 16 25 22 51 22 91 0 38 9 80 27 125 26 68
27 72 27 319 1 228 -1 257 -22 332 -12 46 -26 112 -31 149 -6 37 -17 74 -27
85 -10 12 -21 45 -25 80 -4 38 -14 69 -27 82 -11 12 -23 40 -27 61 -3 22 -15
51 -25 63 -10 13 -22 38 -25 55 -4 16 -18 46 -31 65 -13 20 -24 44 -24 53 0
10 -11 25 -24 33 -14 10 -26 30 -30 51 -4 20 -11 36 -16 36 -6 0 -18 15 -27
33 -32 59 -58 99 -84 131 -14 17 -28 39 -32 49 -4 9 -11 17 -16 17 -5 0 -28
28 -52 63 -46 67 -115 150 -194 235 -120 128 -389 388 -470 456 -135 113 -165
136 -172 136 -4 0 -19 11 -33 24 -63 61 -81 75 -108 80 -15 4 -31 4 -35 0z"/>
<path d="M44346 30908 c-3 -18 -7 -64 -9 -103 -3 -38 -12 -92 -21 -118 -10
-26 -21 -81 -25 -122 -5 -42 -16 -85 -24 -98 -8 -13 -20 -50 -27 -82 -6 -33
-18 -70 -25 -81 -8 -12 -20 -47 -29 -79 -8 -31 -21 -64 -29 -73 -8 -10 -20
-34 -25 -54 -6 -21 -20 -50 -31 -64 -12 -15 -21 -34 -21 -44 0 -10 -8 -28 -19
-41 -10 -13 -28 -44 -40 -69 -12 -25 -33 -63 -46 -85 -14 -22 -34 -59 -45 -82
-12 -24 -30 -47 -40 -53 -11 -6 -20 -17 -20 -24 0 -13 -29 -55 -84 -122 -14
-18 -26 -35 -26 -39 0 -4 -9 -17 -21 -29 -19 -19 -42 -49 -102 -130 -12 -16
-38 -47 -57 -67 -110 -120 -244 -260 -304 -318 -173 -167 -227 -219 -272 -258
-27 -23 -76 -65 -109 -93 -33 -29 -71 -59 -85 -68 -25 -16 -31 -21 -101 -84
-20 -18 -53 -44 -74 -58 -20 -14 -52 -37 -70 -52 -18 -16 -37 -28 -43 -28 -5
0 -17 -11 -26 -25 -9 -14 -21 -25 -26 -25 -10 0 -92 -58 -121 -85 -9 -8 -20
-15 -26 -15 -5 0 -42 -25 -81 -55 -40 -30 -76 -55 -81 -55 -6 0 -16 -8 -23
-19 -7 -10 -33 -29 -56 -42 -24 -13 -58 -32 -75 -41 -17 -10 -35 -24 -39 -32
-5 -9 -28 -25 -51 -36 -73 -36 -101 -52 -130 -77 -16 -12 -33 -23 -39 -23 -5
0 -22 -9 -36 -21 -45 -34 -116 -79 -128 -79 -6 0 -20 -11 -32 -25 -12 -14 -36
-28 -52 -31 -16 -4 -37 -15 -46 -25 -9 -11 -22 -19 -29 -19 -7 0 -32 -13 -56
-30 -24 -16 -51 -30 -60 -30 -9 0 -24 -9 -34 -20 -9 -10 -33 -24 -51 -30 -19
-7 -39 -20 -44 -30 -6 -11 -26 -22 -45 -26 -19 -3 -40 -13 -46 -20 -7 -8 -53
-35 -103 -60 -91 -45 -122 -61 -173 -89 -16 -8 -51 -25 -79 -39 -28 -13 -54
-28 -58 -34 -3 -6 -19 -13 -35 -17 -16 -3 -39 -15 -52 -26 -12 -10 -37 -23
-55 -28 -19 -5 -46 -19 -60 -30 -15 -12 -34 -21 -44 -21 -10 0 -29 -9 -43 -21
-15 -11 -47 -27 -72 -35 -25 -9 -45 -20 -45 -24 0 -5 -22 -16 -49 -25 -27 -9
-55 -22 -61 -30 -7 -8 -27 -17 -45 -21 -19 -3 -48 -17 -66 -30 -18 -13 -40
-24 -50 -24 -9 0 -32 -11 -52 -25 -20 -13 -54 -29 -76 -35 -21 -5 -44 -17 -51
-25 -7 -8 -31 -20 -54 -26 -22 -6 -50 -19 -61 -29 -11 -10 -39 -21 -62 -25
-23 -3 -47 -13 -54 -21 -6 -7 -30 -19 -53 -25 -22 -6 -48 -18 -58 -26 -9 -8
-37 -21 -63 -28 -25 -8 -58 -23 -72 -35 -14 -11 -35 -20 -47 -20 -12 0 -41
-11 -66 -24 -25 -13 -58 -26 -75 -30 -16 -4 -37 -14 -46 -22 -10 -9 -41 -22
-70 -29 -29 -8 -55 -18 -58 -23 -10 -15 -48 -32 -71 -32 -12 0 -40 -11 -63
-24 -23 -13 -58 -27 -78 -30 -20 -4 -44 -15 -54 -26 -10 -11 -37 -22 -64 -26
-25 -3 -53 -13 -62 -21 -10 -8 -40 -20 -68 -28 -28 -7 -62 -22 -77 -34 -15
-12 -41 -21 -58 -21 -17 0 -49 -12 -71 -25 -22 -14 -49 -25 -61 -25 -12 0 -41
-11 -65 -23 -24 -13 -62 -27 -84 -31 -22 -4 -52 -17 -67 -27 -15 -11 -45 -23
-65 -26 -21 -4 -58 -17 -82 -30 -24 -13 -54 -23 -65 -23 -12 0 -38 -9 -59 -20
-21 -11 -60 -25 -87 -31 -28 -6 -57 -17 -64 -25 -19 -19 -61 -34 -94 -34 -15
0 -45 -12 -67 -25 -22 -14 -54 -25 -70 -25 -17 0 -50 -11 -75 -24 -25 -13 -63
-27 -85 -30 -22 -4 -53 -16 -70 -26 -16 -10 -50 -21 -75 -25 -25 -4 -59 -15
-75 -26 -17 -10 -51 -21 -75 -25 -25 -4 -58 -15 -75 -24 -16 -10 -56 -23 -88
-30 -33 -6 -73 -20 -90 -30 -18 -10 -51 -20 -74 -24 -23 -3 -57 -15 -75 -25
-18 -11 -55 -23 -83 -26 -27 -4 -64 -16 -82 -27 -17 -10 -57 -23 -89 -28 -31
-5 -65 -17 -74 -25 -10 -9 -45 -20 -79 -25 -33 -5 -74 -18 -90 -29 -17 -13
-45 -21 -68 -21 -21 0 -61 -11 -89 -24 -28 -13 -71 -27 -95 -31 -24 -4 -64
-16 -88 -27 -25 -11 -68 -23 -96 -27 -28 -4 -67 -17 -87 -29 -22 -14 -52 -22
-78 -22 -24 0 -65 -10 -94 -24 -28 -13 -73 -27 -99 -30 -26 -4 -71 -18 -100
-32 -29 -13 -67 -24 -85 -24 -18 0 -52 -9 -75 -19 -23 -11 -71 -24 -106 -31
-35 -6 -74 -18 -87 -26 -12 -9 -51 -19 -86 -24 -35 -5 -84 -18 -108 -29 -25
-11 -70 -23 -100 -27 -30 -4 -68 -13 -83 -21 -16 -8 -62 -21 -103 -28 -41 -8
-92 -24 -114 -35 -21 -11 -58 -20 -80 -20 -22 0 -66 -11 -98 -24 -31 -13 -80
-26 -109 -30 -28 -4 -71 -15 -96 -26 -24 -11 -70 -22 -103 -26 -32 -4 -78 -15
-102 -26 -23 -10 -73 -22 -110 -27 -38 -5 -83 -16 -100 -25 -17 -9 -65 -21
-106 -27 -42 -5 -95 -18 -118 -29 -24 -10 -70 -22 -102 -26 -33 -4 -78 -15
-100 -25 -23 -9 -75 -22 -116 -28 -41 -5 -90 -18 -109 -27 -18 -9 -69 -20
-111 -25 -43 -4 -95 -16 -116 -27 -22 -11 -71 -22 -111 -25 -39 -3 -85 -13
-102 -21 -16 -9 -63 -21 -103 -27 -40 -5 -107 -21 -148 -35 -41 -13 -93 -24
-115 -24 -22 0 -71 -11 -110 -25 -38 -13 -89 -25 -112 -25 -24 0 -75 -11 -115
-24 -40 -13 -104 -27 -141 -30 -37 -4 -91 -16 -118 -27 -28 -11 -88 -23 -132
-28 -45 -5 -99 -16 -119 -25 -21 -9 -77 -20 -125 -25 -49 -5 -105 -17 -125
-25 -21 -9 -77 -20 -126 -25 -48 -5 -115 -19 -149 -30 -34 -11 -95 -23 -135
-27 -40 -3 -100 -15 -133 -26 -33 -11 -100 -24 -150 -28 -49 -5 -108 -16 -129
-25 -22 -9 -84 -21 -137 -26 -53 -5 -116 -18 -140 -28 -26 -11 -83 -22 -139
-26 -52 -4 -110 -13 -130 -20 -51 -20 -134 -35 -189 -35 -27 0 -77 -9 -111
-20 -35 -11 -111 -24 -169 -30 -58 -5 -123 -16 -143 -24 -20 -9 -89 -20 -152
-26 -64 -6 -133 -17 -153 -24 -46 -18 -164 -36 -231 -36 -27 0 -78 -9 -113
-21 -36 -11 -114 -24 -179 -29 -63 -4 -135 -16 -160 -25 -26 -10 -97 -21 -167
-25 -67 -5 -131 -13 -141 -19 -31 -17 -188 -41 -266 -41 -44 0 -96 -8 -136
-21 -42 -13 -112 -24 -200 -29 -81 -5 -153 -15 -180 -25 -28 -10 -99 -20 -185
-25 -81 -5 -159 -15 -184 -25 -26 -9 -109 -20 -200 -26 -86 -5 -177 -17 -202
-25 -58 -18 -191 -34 -294 -34 -44 0 -96 -5 -115 -11 -83 -25 -115 -30 -290
-39 -120 -6 -200 -15 -228 -25 -29 -10 -110 -19 -240 -25 -118 -6 -215 -16
-242 -25 -62 -20 -217 -35 -358 -35 -76 0 -134 -5 -158 -14 -58 -20 -116 -26
-359 -36 -143 -6 -239 -14 -275 -25 -39 -11 -137 -18 -345 -24 -187 -7 -313
-15 -355 -25 -92 -20 -325 -36 -551 -36 -107 0 -212 -5 -234 -10 -92 -21 -275
-31 -710 -40 -253 -6 -489 -15 -525 -20 -143 -21 -604 -30 -1610 -30 -1013 0
-1382 8 -1500 30 -30 6 -251 15 -490 20 -343 7 -449 13 -500 25 -46 12 -145
19 -334 25 -256 8 -390 22 -402 41 -3 5 -49 9 -102 9 -182 1 -365 17 -407 34
-29 13 -89 20 -225 26 -155 7 -192 11 -230 29 -37 17 -65 21 -161 21 -127 0
-214 12 -238 34 -11 9 -59 15 -158 19 -114 4 -151 9 -185 25 -31 14 -75 22
-156 27 -111 6 -161 16 -172 36 -4 5 -41 12 -84 16 -58 4 -79 10 -84 22 -3 9
-16 26 -29 38 -13 12 -23 27 -23 32 0 6 20 31 45 56 37 36 52 45 80 45 19 0
35 4 35 9 0 20 33 41 65 41 24 0 37 7 49 25 12 18 25 25 50 25 25 0 38 7 50
25 12 18 25 25 49 25 24 0 40 8 59 30 20 23 35 30 62 30 20 0 36 4 36 9 0 20
33 41 65 41 24 0 37 7 49 25 12 18 25 25 49 25 24 0 40 8 59 30 24 27 32 30
87 30 34 0 61 4 61 9 0 20 33 41 65 41 24 0 37 7 49 25 15 22 24 25 76 25 52
0 61 3 76 25 13 19 25 25 53 25 30 0 42 6 59 30 20 27 28 30 79 30 47 0 59 4
79 25 16 18 34 25 59 25 19 0 35 4 35 9 0 26 34 41 90 41 51 0 60 3 74 25 15
22 23 25 81 25 57 0 66 3 76 23 17 32 28 37 90 37 49 0 59 3 73 25 15 22 23
25 80 25 57 0 65 3 80 25 14 22 24 25 74 25 51 0 60 3 84 30 23 27 32 30 83
30 49 0 60 4 77 25 17 22 27 25 78 25 52 0 62 3 76 25 15 22 23 25 79 25 56 0
64 3 79 25 15 24 22 25 104 25 86 0 89 1 110 30 21 27 28 30 81 30 52 0 61 3
75 25 16 24 22 25 105 25 84 0 90 1 105 25 16 24 22 25 105 25 84 0 90 1 105
25 16 24 20 25 131 25 l114 0 21 30 21 30 354 0 c345 0 354 1 360 20 6 19 22
26 75 32 25 3 25 4 25 93 l0 90 -93 3 c-85 3 -93 5 -108 27 l-16 25 -194 0
-194 0 -16 25 -16 25 -215 0 -215 0 -28 30 -28 30 -214 0 c-117 0 -218 4 -224
8 -6 4 -13 15 -17 25 -6 16 -29 17 -281 17 l-276 0 -16 25 -16 25 -350 0 -350
0 -26 30 -26 30 -1446 0 -1446 0 -22 -30 -23 -30 -218 0 -219 0 -16 -25 c-16
-25 -18 -25 -156 -25 -138 0 -140 0 -156 -25 -16 -24 -20 -25 -128 -25 -111 0
-112 0 -138 -30 -25 -29 -30 -30 -108 -30 -75 0 -85 -2 -106 -25 -20 -21 -32
-25 -82 -25 -53 0 -62 -3 -76 -25 -15 -22 -24 -25 -76 -25 -52 0 -61 -3 -76
-25 -13 -20 -25 -25 -55 -25 -30 0 -41 -5 -50 -22 -16 -31 -28 -38 -65 -38
-23 0 -36 -7 -48 -25 -12 -18 -25 -25 -47 -25 -24 0 -42 -11 -79 -50 -37 -38
-55 -50 -78 -50 -29 0 -62 -21 -62 -40 0 -5 -9 -11 -19 -15 -11 -3 -23 -15
-26 -25 -3 -10 -15 -22 -26 -25 -14 -5 -19 -15 -19 -42 0 -26 -7 -41 -30 -61
-29 -26 -30 -29 -30 -114 0 -75 -3 -89 -20 -101 -17 -12 -20 -27 -22 -143 -3
-125 -4 -129 -25 -132 -22 -3 -23 -7 -25 -155 -3 -147 -4 -152 -26 -162 -21
-9 -22 -14 -22 -150 0 -77 -4 -145 -8 -151 -4 -6 -17 -14 -29 -18 -23 -7 -23
-9 -23 -187 l0 -179 -25 0 -25 0 0 -437 c0 -432 -5 -505 -34 -516 -10 -4 -14
-45 -19 -163 -5 -138 -8 -160 -26 -185 -21 -28 -21 -31 -21 -1029 l0 -1000 73
0 c91 -1 155 -13 170 -33 9 -11 44 -18 125 -25 93 -7 116 -13 135 -30 20 -19
35 -22 115 -22 90 0 162 -17 162 -38 0 -5 54 -11 120 -14 103 -3 123 -7 142
-25 19 -17 42 -22 137 -27 110 -7 148 -16 163 -40 4 -6 61 -13 137 -16 114 -5
133 -9 153 -27 20 -18 39 -21 145 -25 109 -4 125 -6 146 -26 20 -19 35 -22
108 -22 108 0 211 -15 224 -33 7 -9 53 -17 151 -24 113 -8 148 -14 175 -30 29
-18 55 -22 171 -25 119 -3 141 -6 165 -24 24 -18 48 -22 176 -27 121 -5 154
-9 181 -25 27 -16 61 -21 189 -27 128 -6 164 -11 194 -27 31 -16 68 -21 203
-28 165 -8 192 -12 220 -35 10 -9 72 -14 186 -17 149 -4 177 -8 216 -26 35
-18 63 -22 139 -23 148 0 301 -15 339 -32 26 -12 95 -18 260 -26 181 -8 237
-14 289 -30 53 -18 90 -21 225 -22 191 0 299 -10 346 -32 27 -12 90 -17 281
-22 169 -4 265 -11 310 -22 35 -8 109 -17 164 -19 566 -21 634 -25 685 -39 44
-13 153 -18 550 -25 272 -5 545 -14 605 -20 61 -6 157 -15 215 -20 142 -12
2294 -12 2445 0 66 5 174 14 240 19 66 6 300 13 520 17 379 5 437 9 630 34 44
6 220 15 390 20 172 5 323 14 339 19 39 15 314 38 476 40 83 1 154 7 185 16
58 17 250 35 381 35 50 0 113 7 140 15 64 19 207 35 319 35 86 1 115 5 214 30
24 6 118 15 210 20 103 5 179 14 201 23 36 15 93 22 263 32 53 3 116 13 138
21 48 16 186 34 271 34 31 0 69 5 85 11 56 23 100 30 228 38 80 6 145 15 168
25 23 10 89 20 160 26 71 5 138 15 160 25 21 9 91 20 155 26 66 5 143 19 176
30 33 11 98 23 145 26 47 2 112 13 144 24 31 10 103 23 160 28 56 5 120 17
142 26 22 10 83 21 137 26 54 4 111 15 129 24 17 9 74 21 127 26 54 6 129 21
169 34 43 15 94 25 130 25 32 0 69 6 83 13 39 20 68 27 160 37 47 4 99 16 117
25 18 9 73 20 123 26 52 5 101 16 115 25 14 9 62 20 107 25 46 5 104 18 129
29 25 10 77 22 115 26 38 3 89 15 114 26 25 11 80 23 122 28 43 5 89 16 103
26 13 9 61 20 104 25 45 5 95 17 113 28 18 10 62 21 98 24 39 4 88 16 120 31
36 17 73 26 105 26 32 0 65 8 90 21 22 12 72 25 110 30 39 4 88 17 110 28 21
12 56 21 77 21 21 0 64 11 96 24 31 13 82 27 112 31 30 4 75 18 100 31 28 15
62 24 90 24 26 0 61 8 83 20 20 11 67 24 103 29 37 6 74 17 85 27 12 10 46 21
84 25 35 5 82 17 103 28 22 11 63 23 93 27 30 3 69 15 86 26 18 11 60 23 93
28 35 5 71 17 86 29 17 13 41 21 67 21 22 0 63 11 91 24 28 13 73 27 99 30 27
4 63 16 81 27 18 10 55 22 81 26 27 3 64 15 81 25 18 10 58 23 89 28 32 5 65
16 75 25 9 8 42 20 74 26 31 5 71 18 89 29 18 10 52 21 76 25 24 4 64 18 89
31 25 13 58 24 73 24 15 0 49 11 75 25 26 14 59 25 73 25 15 0 43 9 64 20 21
11 61 25 89 31 28 6 65 19 82 29 17 10 49 21 71 25 22 4 54 15 70 25 17 11 50
22 73 26 23 3 56 17 74 30 19 14 46 24 66 24 18 0 52 11 75 24 23 13 59 27 80
30 21 4 52 15 70 25 18 11 48 22 68 25 21 4 49 16 64 28 15 12 50 25 77 29 28
5 58 15 67 23 9 8 38 20 64 26 27 6 59 17 72 26 14 9 43 20 65 25 23 5 54 18
69 29 14 12 45 23 66 27 22 3 50 14 62 23 13 10 40 21 60 25 21 3 54 17 73 30
19 12 53 26 75 30 22 4 48 13 57 22 9 8 36 19 59 24 23 6 54 18 68 28 14 11
46 24 69 30 24 7 52 21 63 32 10 10 33 19 50 19 17 0 49 11 72 24 23 13 56 27
74 31 17 3 37 13 44 21 6 7 34 21 61 29 28 8 56 21 62 30 6 8 33 19 59 24 26
5 56 16 66 25 9 9 33 19 52 22 19 4 50 17 69 29 19 13 49 26 66 30 18 3 40 15
49 25 10 11 33 22 51 26 18 3 47 17 65 30 18 13 45 24 60 24 14 0 37 9 51 19
13 11 42 24 65 30 22 6 46 18 53 26 7 8 31 20 54 26 22 6 48 17 56 25 9 7 36
20 60 29 24 9 51 22 60 29 8 7 33 19 55 26 22 7 49 20 60 30 11 10 34 21 50
24 17 4 37 14 45 22 9 7 35 20 59 29 23 8 54 24 68 35 14 11 33 20 42 20 10 0
32 11 50 24 18 13 48 27 67 31 19 3 38 13 41 20 3 8 24 20 47 27 22 6 54 22
69 35 16 13 36 23 46 23 9 0 32 11 51 25 19 14 41 25 50 25 9 0 31 11 49 24
19 14 46 28 61 31 15 3 36 15 46 26 9 10 25 19 34 19 10 0 33 11 53 24 19 13
45 27 57 31 12 4 38 18 57 31 20 13 41 24 47 24 7 0 27 11 46 25 19 14 42 25
51 25 10 0 30 11 46 24 15 13 39 27 53 31 14 4 35 18 47 31 12 13 30 24 40 24
10 0 29 8 43 18 27 19 81 49 156 85 28 14 54 29 58 35 3 6 19 13 35 17 16 3
37 15 46 25 10 11 33 24 51 30 19 7 34 16 34 21 0 5 21 19 47 30 26 11 50 24
53 29 3 4 21 15 40 25 76 36 123 65 136 83 7 11 30 23 49 26 20 4 38 13 41 21
3 8 21 19 39 25 18 6 41 20 50 30 10 11 24 20 32 20 7 0 27 14 45 30 17 17 38
30 48 30 9 0 31 11 50 25 19 14 39 25 45 25 7 0 20 9 29 19 10 11 32 25 49 32
18 7 36 19 41 27 4 8 22 21 40 29 28 13 62 33 155 88 18 11 45 29 60 40 14 12
38 26 54 33 15 6 27 15 27 20 0 5 18 17 40 27 22 10 40 22 40 27 0 5 15 16 33
24 17 8 48 26 67 39 19 13 50 35 68 47 18 13 48 34 66 48 19 14 49 34 67 45
18 11 43 27 54 35 12 8 37 25 56 37 71 45 103 69 128 96 14 15 31 27 37 27 7
0 26 11 42 25 17 14 33 25 37 25 4 0 21 12 39 26 35 29 87 67 142 104 20 14
49 37 65 53 15 15 31 27 37 27 5 0 26 14 47 30 21 17 41 30 46 30 5 0 19 10
31 21 13 12 59 47 103 79 89 65 124 93 161 129 13 13 33 29 43 35 46 28 89 57
116 81 36 30 56 46 155 125 112 89 120 96 180 149 30 28 89 77 130 111 117 95
136 112 190 163 27 26 52 47 56 47 3 0 18 12 33 28 15 15 47 45 72 67 25 22
74 67 110 100 36 33 109 101 163 150 125 115 467 457 572 572 44 48 109 120
144 158 36 39 69 76 75 84 5 8 25 29 43 47 17 18 32 35 32 37 0 3 21 28 48 56
26 28 72 83 102 122 30 39 67 84 83 101 15 16 27 33 27 38 0 5 10 16 21 24 12
8 27 24 33 34 6 11 32 48 59 81 26 34 47 66 47 71 0 5 11 17 25 26 14 9 25 20
25 25 0 5 24 40 53 79 28 38 62 84 75 102 12 18 34 49 47 68 14 19 30 47 36
63 6 15 20 32 30 38 10 5 19 16 19 23 0 7 14 30 30 51 17 21 30 43 30 50 0 7
7 18 16 26 8 7 25 30 37 52 12 21 34 60 49 85 16 26 37 66 49 90 11 24 27 46
34 48 7 3 16 23 20 45 4 21 15 45 25 52 10 7 25 29 34 50 8 21 22 45 31 53 8
9 15 23 15 33 0 10 11 34 25 54 13 20 29 54 35 76 5 21 17 44 25 51 8 7 18 31
22 53 3 22 14 48 24 58 10 10 23 37 29 61 7 24 20 57 30 73 9 17 20 49 23 71
2 23 14 55 26 70 11 16 24 52 27 79 4 28 15 65 26 82 11 18 24 61 28 96 5 35
18 83 29 108 13 28 21 66 21 104 0 34 10 88 22 125 20 60 22 91 25 371 4 305
4 307 -20 380 -14 41 -27 104 -29 141 -3 45 -10 73 -21 86 -9 10 -21 42 -27
71 -5 30 -18 68 -29 85 -10 17 -22 46 -26 63 -3 18 -11 35 -16 39 -6 3 -21 29
-35 57 -39 82 -61 118 -82 138 -11 10 -23 27 -27 39 -10 30 -23 24 -29 -12z"/>
<path d="M47307 22683 c-3 -4 -8 -27 -12 -50 -4 -23 -15 -53 -25 -66 -10 -12
-23 -41 -29 -64 -6 -22 -17 -46 -25 -52 -7 -6 -21 -31 -31 -56 -9 -25 -20 -45
-25 -45 -4 0 -15 -18 -24 -40 -9 -22 -20 -40 -24 -40 -5 0 -16 -15 -25 -32 -9
-18 -33 -53 -52 -78 -19 -25 -43 -57 -53 -71 -52 -77 -108 -142 -279 -321 -7
-7 -18 -19 -25 -25 -7 -7 -17 -17 -23 -22 -44 -44 -247 -239 -261 -251 -52
-43 -173 -142 -198 -162 -16 -13 -39 -34 -53 -47 -13 -14 -34 -32 -48 -40 -37
-25 -148 -109 -167 -127 -10 -9 -26 -22 -36 -28 -33 -19 -146 -103 -167 -124
-11 -10 -33 -27 -50 -36 -16 -9 -50 -32 -75 -51 -25 -19 -60 -41 -77 -49 -18
-8 -33 -19 -33 -23 0 -4 -30 -26 -66 -48 -37 -22 -75 -48 -85 -57 -10 -9 -32
-24 -50 -34 -18 -9 -37 -20 -43 -25 -20 -17 -80 -58 -116 -79 -19 -11 -55 -34
-80 -50 -25 -16 -61 -38 -80 -47 -19 -10 -39 -24 -43 -31 -5 -8 -28 -22 -50
-33 -61 -30 -100 -52 -132 -77 -15 -12 -34 -22 -41 -22 -8 0 -24 -11 -35 -24
-12 -13 -32 -27 -45 -30 -13 -4 -40 -17 -60 -31 -20 -14 -41 -25 -46 -25 -6 0
-23 -11 -40 -25 -16 -14 -38 -25 -48 -25 -10 0 -25 -11 -34 -24 -8 -13 -30
-27 -48 -31 -18 -4 -46 -18 -61 -31 -16 -13 -34 -24 -41 -24 -8 0 -24 -8 -37
-19 -13 -10 -35 -22 -49 -26 -14 -4 -34 -15 -45 -25 -11 -10 -37 -23 -57 -29
-21 -7 -41 -17 -44 -23 -3 -5 -25 -19 -48 -30 -68 -32 -122 -64 -151 -86 -15
-12 -36 -22 -46 -22 -9 0 -30 -11 -46 -23 -15 -13 -41 -27 -58 -31 -16 -4 -39
-16 -50 -26 -11 -9 -37 -23 -57 -29 -20 -7 -42 -18 -48 -26 -6 -7 -24 -16 -39
-20 -16 -3 -43 -17 -62 -31 -18 -13 -40 -24 -50 -24 -9 0 -28 -9 -42 -20 -14
-12 -41 -26 -59 -32 -18 -6 -40 -17 -48 -24 -9 -7 -35 -20 -59 -29 -23 -8 -54
-24 -68 -35 -14 -11 -33 -20 -43 -20 -10 0 -29 -9 -44 -21 -14 -11 -43 -25
-64 -31 -20 -5 -46 -18 -57 -27 -11 -10 -39 -23 -61 -29 -23 -7 -44 -19 -48
-27 -3 -8 -23 -18 -45 -21 -22 -4 -48 -15 -57 -25 -10 -11 -35 -24 -56 -30
-22 -5 -47 -18 -57 -28 -11 -11 -37 -22 -59 -26 -23 -3 -46 -13 -52 -20 -6 -8
-33 -21 -60 -30 -27 -9 -53 -22 -60 -30 -6 -7 -26 -16 -44 -19 -19 -4 -45 -15
-58 -25 -13 -11 -42 -24 -65 -30 -22 -6 -46 -18 -53 -26 -7 -8 -30 -20 -51
-25 -22 -6 -56 -22 -76 -35 -20 -14 -48 -25 -63 -25 -15 0 -33 -7 -40 -15 -7
-8 -36 -22 -65 -31 -30 -8 -59 -21 -65 -29 -6 -7 -26 -17 -43 -20 -18 -4 -48
-17 -67 -30 -19 -13 -51 -26 -70 -30 -19 -4 -44 -16 -56 -26 -12 -11 -39 -22
-60 -26 -21 -3 -46 -12 -56 -20 -9 -8 -38 -21 -64 -29 -26 -8 -55 -20 -63 -28
-9 -8 -36 -19 -61 -26 -25 -6 -54 -20 -65 -30 -11 -10 -38 -22 -60 -26 -22 -4
-60 -18 -84 -31 -24 -12 -51 -23 -61 -23 -9 0 -31 -11 -50 -25 -19 -14 -43
-25 -55 -25 -11 0 -40 -11 -65 -24 -25 -12 -60 -26 -78 -29 -19 -4 -45 -15
-58 -26 -14 -11 -44 -22 -67 -26 -23 -4 -49 -14 -58 -22 -10 -8 -40 -20 -69
-28 -29 -8 -60 -21 -69 -29 -9 -8 -38 -20 -64 -26 -27 -6 -59 -17 -72 -26 -14
-9 -43 -20 -65 -25 -23 -5 -54 -18 -69 -29 -14 -12 -45 -23 -66 -27 -22 -3
-51 -14 -64 -24 -12 -10 -39 -21 -60 -25 -20 -3 -52 -16 -71 -29 -19 -12 -54
-26 -78 -29 -24 -4 -55 -15 -70 -25 -15 -11 -44 -22 -65 -26 -21 -3 -52 -14
-70 -25 -18 -10 -48 -21 -67 -25 -19 -4 -53 -18 -76 -31 -22 -13 -52 -24 -65
-24 -13 0 -45 -11 -71 -25 -26 -14 -55 -25 -65 -25 -11 0 -37 -9 -58 -20 -22
-12 -60 -25 -85 -31 -25 -5 -58 -19 -73 -30 -15 -11 -49 -24 -75 -28 -26 -4
-63 -17 -82 -29 -19 -12 -46 -22 -60 -22 -14 0 -44 -9 -65 -20 -22 -12 -62
-26 -90 -32 -27 -5 -57 -16 -65 -23 -8 -7 -44 -21 -79 -30 -36 -9 -70 -23 -76
-31 -6 -8 -36 -19 -68 -23 -32 -4 -66 -16 -77 -26 -11 -10 -45 -22 -75 -26
-30 -4 -67 -16 -82 -27 -16 -11 -51 -23 -78 -27 -28 -4 -61 -16 -75 -25 -14
-10 -52 -23 -84 -29 -33 -6 -67 -18 -76 -26 -10 -9 -42 -20 -72 -24 -30 -5
-69 -18 -88 -29 -19 -11 -55 -23 -79 -27 -24 -4 -58 -16 -75 -26 -17 -10 -51
-21 -75 -25 -25 -4 -65 -18 -90 -30 -24 -13 -58 -24 -75 -24 -17 0 -52 -11
-78 -25 -26 -14 -62 -25 -79 -25 -18 0 -51 -11 -73 -24 -23 -13 -63 -27 -89
-30 -27 -4 -69 -18 -94 -32 -25 -13 -61 -24 -80 -24 -19 0 -50 -8 -71 -19 -20
-10 -57 -22 -82 -26 -25 -4 -68 -18 -96 -31 -28 -13 -64 -24 -80 -24 -16 0
-52 -11 -81 -24 -29 -14 -74 -28 -100 -32 -26 -4 -67 -18 -92 -30 -24 -13 -61
-24 -81 -24 -23 0 -48 -8 -64 -21 -17 -13 -50 -24 -90 -29 -35 -4 -74 -15 -87
-23 -13 -9 -53 -21 -89 -27 -36 -6 -79 -20 -95 -30 -17 -10 -55 -22 -85 -26
-30 -3 -73 -15 -95 -24 -22 -10 -62 -21 -90 -25 -27 -4 -68 -16 -89 -27 -21
-11 -66 -24 -99 -28 -34 -5 -72 -18 -86 -28 -15 -10 -51 -21 -82 -25 -31 -3
-74 -14 -96 -26 -22 -11 -64 -23 -94 -27 -30 -3 -73 -17 -96 -30 -28 -16 -57
-24 -90 -24 -30 0 -63 -8 -88 -21 -22 -12 -69 -25 -105 -30 -36 -4 -82 -17
-102 -27 -21 -11 -64 -23 -95 -27 -32 -4 -78 -18 -103 -31 -27 -15 -62 -24
-88 -24 -23 0 -69 -11 -102 -25 -33 -14 -75 -25 -95 -25 -20 0 -61 -11 -93
-24 -31 -13 -80 -26 -109 -30 -28 -4 -71 -15 -95 -25 -24 -11 -70 -23 -103
-27 -32 -4 -79 -17 -104 -30 -30 -16 -61 -24 -95 -24 -33 0 -65 -8 -91 -21
-22 -12 -72 -25 -112 -30 -39 -4 -89 -17 -110 -27 -21 -11 -69 -22 -108 -26
-42 -4 -84 -15 -105 -28 -22 -13 -60 -22 -100 -26 -38 -3 -84 -14 -110 -27
-28 -14 -71 -24 -115 -27 -39 -3 -85 -12 -102 -22 -18 -9 -67 -21 -110 -27
-42 -6 -89 -17 -104 -25 -15 -7 -67 -20 -116 -28 -48 -8 -112 -24 -141 -36
-29 -11 -73 -20 -98 -20 -27 0 -70 -10 -103 -24 -35 -16 -82 -26 -126 -29 -39
-2 -85 -12 -103 -21 -18 -9 -69 -21 -115 -27 -45 -6 -102 -19 -127 -30 -25
-12 -81 -24 -125 -29 -44 -4 -98 -15 -119 -25 -21 -9 -76 -20 -122 -25 -45 -5
-96 -16 -112 -24 -17 -9 -71 -20 -120 -26 -49 -5 -109 -18 -133 -29 -24 -10
-78 -22 -119 -25 -42 -4 -107 -18 -145 -31 -43 -15 -93 -25 -127 -25 -34 0
-79 -8 -110 -21 -29 -11 -95 -25 -145 -30 -51 -5 -107 -16 -124 -24 -17 -9
-74 -21 -126 -26 -53 -6 -128 -21 -169 -34 -44 -15 -95 -25 -131 -25 -33 0
-84 -9 -115 -20 -31 -11 -102 -24 -160 -29 -57 -6 -121 -18 -143 -27 -22 -9
-88 -20 -148 -25 -59 -5 -120 -15 -135 -23 -33 -16 -142 -36 -203 -36 -25 0
-70 -9 -100 -19 -31 -11 -105 -24 -165 -30 -60 -5 -127 -17 -149 -26 -23 -10
-86 -21 -150 -26 -61 -4 -127 -15 -148 -24 -20 -8 -94 -20 -163 -25 -70 -6
-138 -17 -153 -24 -33 -17 -152 -36 -229 -36 -33 0 -88 -9 -123 -21 -40 -13
-110 -24 -189 -29 -74 -5 -140 -15 -162 -24 -24 -10 -94 -20 -189 -26 -85 -6
-163 -16 -178 -24 -36 -18 -85 -26 -231 -36 -69 -5 -150 -16 -180 -24 -30 -9
-120 -21 -200 -26 -82 -5 -164 -16 -188 -24 -26 -10 -108 -20 -215 -26 -97 -5
-189 -16 -212 -24 -55 -19 -200 -36 -316 -36 -57 0 -113 -6 -136 -14 -57 -20
-200 -36 -322 -36 -69 0 -131 -7 -185 -20 -59 -14 -146 -22 -304 -29 -122 -6
-231 -15 -241 -20 -28 -15 -179 -29 -401 -36 -115 -4 -215 -12 -245 -20 -68
-19 -296 -35 -492 -35 -88 0 -185 -5 -214 -10 -132 -26 -218 -31 -594 -40
-220 -6 -422 -14 -450 -19 -122 -23 -550 -31 -1880 -32 -1395 -2 -1662 3
-1755 31 -20 7 -199 15 -425 20 -214 5 -408 13 -430 19 -115 26 -160 30 -390
34 -205 4 -258 8 -295 22 -34 13 -94 20 -240 26 -226 9 -283 15 -321 35 -17 8
-58 14 -106 14 -142 1 -306 18 -365 39 -35 13 -82 21 -122 21 -62 0 -76 7 -76
40 0 19 34 40 65 40 26 0 39 6 51 25 14 22 23 25 78 25 58 0 64 2 84 30 17 23
30 30 56 30 25 0 38 7 50 25 12 18 25 25 50 25 25 0 38 7 50 25 13 19 25 25
55 25 31 0 40 5 49 25 11 23 17 25 75 25 57 0 65 3 89 30 18 21 35 30 56 30
21 0 35 8 46 25 13 20 25 25 57 25 29 0 41 5 46 17 10 27 23 33 83 33 49 0 59
4 82 30 17 20 36 30 53 30 17 0 37 10 51 25 16 18 34 25 59 25 19 0 35 4 35 9
0 26 34 41 90 41 52 0 62 3 76 25 12 18 25 25 48 25 23 0 39 9 58 30 19 22 35
30 58 30 22 0 38 8 52 25 17 22 27 25 78 25 52 0 62 3 76 25 13 20 25 25 55
25 33 0 41 4 49 25 8 21 16 25 48 25 31 0 42 6 60 30 17 23 30 30 56 30 25 0
38 7 50 25 15 22 23 25 82 25 52 0 66 3 71 17 9 25 23 33 56 33 19 0 39 10 57
30 24 26 35 30 82 30 46 0 58 4 76 25 15 17 32 25 56 25 25 0 38 6 50 25 12
18 25 25 50 25 25 0 38 7 50 25 14 22 24 25 76 25 58 0 62 2 98 45 7 8 27 15
43 15 21 0 37 8 51 25 17 22 27 25 78 25 52 0 62 3 76 25 13 20 25 25 55 25
32 0 41 5 51 25 10 23 17 25 72 25 56 0 64 3 88 30 18 20 35 30 55 30 19 0 37
9 51 25 20 23 29 25 107 25 79 0 86 2 101 25 l16 25 591 2 c461 2 591 6 595
16 3 9 -40 12 -192 12 l-195 0 -23 30 -22 30 -218 0 -218 0 -16 25 -16 25
-248 0 -248 0 -16 25 -16 25 -270 0 c-231 0 -271 2 -284 16 -9 8 -16 20 -16
25 0 5 -121 9 -297 9 -164 0 -303 4 -309 8 -6 4 -16 17 -23 30 l-12 22 -402 0
c-221 0 -407 4 -413 8 -6 4 -13 15 -17 25 -6 16 -92 17 -1621 17 l-1614 0 -16
-25 -16 -25 -250 0 c-248 0 -249 0 -261 -22 -7 -13 -17 -26 -23 -30 -6 -4 -82
-8 -170 -8 -156 0 -159 0 -182 -25 -22 -24 -29 -25 -133 -25 -107 0 -111 -1
-127 -25 -16 -24 -20 -25 -130 -25 -110 0 -114 -1 -130 -25 -14 -22 -23 -25
-76 -25 -54 0 -63 -3 -88 -30 -25 -27 -34 -30 -89 -30 -34 0 -61 -4 -61 -9 0
-20 -33 -41 -65 -41 -24 0 -37 -7 -49 -25 -12 -18 -25 -25 -50 -25 -25 0 -38
-7 -50 -25 -12 -18 -25 -25 -47 -25 -25 0 -50 -19 -150 -119 -100 -101 -119
-125 -119 -150 0 -22 -7 -35 -25 -47 -22 -14 -25 -23 -25 -74 0 -51 3 -60 25
-74 24 -16 25 -22 25 -106 0 -82 2 -90 23 -101 30 -16 35 -26 43 -87 5 -44 11
-55 30 -62 22 -9 24 -15 24 -79 0 -65 1 -69 25 -75 24 -6 25 -10 25 -81 0 -69
2 -75 20 -75 26 0 40 -36 40 -103 0 -45 3 -54 23 -62 19 -9 22 -18 25 -82 3
-65 5 -72 25 -75 20 -3 22 -9 25 -76 3 -67 5 -74 27 -82 23 -9 25 -14 25 -79
0 -64 2 -69 24 -75 24 -6 36 -30 36 -76 0 -17 8 -29 23 -35 19 -9 22 -18 25
-82 3 -65 5 -72 25 -75 20 -3 22 -9 25 -76 3 -67 5 -74 27 -82 22 -8 25 -16
25 -55 0 -38 3 -45 20 -45 28 0 40 -30 40 -99 0 -53 2 -61 19 -61 22 0 31 -19
31 -64 0 -25 6 -35 25 -44 21 -10 25 -18 25 -56 0 -39 3 -45 23 -48 20 -3 22
-10 27 -78 4 -65 8 -75 25 -79 27 -5 35 -19 35 -62 0 -28 5 -38 25 -47 21 -10
25 -18 25 -56 0 -39 3 -45 22 -48 20 -3 23 -10 26 -50 3 -41 7 -49 27 -54 24
-6 35 -29 35 -74 0 -17 8 -29 22 -35 18 -8 24 -20 26 -53 3 -35 8 -45 28 -52
22 -9 24 -14 24 -80 0 -66 1 -70 25 -76 22 -6 25 -11 25 -55 0 -42 3 -49 20
-49 24 0 40 -28 40 -70 0 -23 6 -33 25 -40 22 -8 25 -16 25 -54 0 -39 3 -45
22 -48 15 -2 24 -11 26 -25 2 -13 13 -24 28 -27 21 -6 24 -12 24 -51 0 -39 4
-47 24 -54 26 -11 36 -30 36 -70 0 -20 7 -31 25 -39 21 -10 25 -18 25 -56 0
-39 3 -45 22 -48 20 -3 24 -11 28 -53 4 -42 8 -50 27 -53 19 -3 24 -12 29 -53
4 -31 11 -49 20 -49 19 0 34 -33 34 -74 0 -31 3 -36 23 -36 13 0 34 -11 47
-25 13 -14 32 -25 42 -25 10 0 30 -11 44 -25 14 -14 34 -25 45 -25 27 0 89
-27 89 -38 0 -6 21 -13 46 -17 30 -4 54 -15 69 -31 16 -17 33 -24 59 -24 38 0
96 -24 96 -39 0 -4 27 -11 61 -14 42 -4 68 -12 83 -26 12 -12 35 -21 52 -21
47 -1 108 -18 119 -34 7 -9 38 -17 84 -22 49 -4 83 -14 105 -29 26 -17 52 -24
109 -27 61 -3 80 -8 100 -26 18 -17 36 -22 78 -23 80 0 151 -14 163 -31 8 -11
41 -18 116 -23 106 -8 149 -17 161 -37 4 -5 62 -14 130 -18 121 -7 170 -18
184 -39 4 -7 47 -11 108 -11 121 0 213 -14 237 -35 12 -11 40 -15 106 -15 140
-1 276 -15 314 -32 26 -12 91 -19 250 -26 172 -8 228 -14 279 -31 55 -18 88
-21 250 -21 207 -1 363 -13 431 -34 34 -11 144 -16 455 -21 412 -6 640 -17
705 -35 55 -15 2344 -16 2450 -2 117 17 484 32 1005 41 242 5 460 14 485 19
59 14 410 32 606 32 109 0 191 6 272 20 82 14 204 23 412 30 210 7 311 14 350
25 39 11 138 18 333 25 152 5 286 14 296 19 28 16 176 30 366 37 95 3 190 12
215 19 64 19 125 26 333 35 100 5 211 16 247 24 36 9 146 20 245 25 109 6 200
16 230 26 30 9 119 19 230 25 112 6 196 15 223 24 38 14 162 27 367 40 39 2
95 12 125 20 30 9 125 20 211 25 86 5 164 13 175 18 29 16 84 24 233 33 75 5
155 16 179 25 24 8 107 20 186 25 83 6 157 16 179 25 20 8 105 21 189 29 84 8
178 22 208 31 30 9 102 19 160 22 59 3 133 13 169 24 35 11 121 24 190 29 69
5 146 17 171 26 25 9 97 20 160 25 64 4 132 15 153 24 21 9 91 21 155 26 64 6
131 15 147 21 72 24 145 37 210 38 45 0 98 9 150 25 52 16 104 25 148 25 43 0
89 8 125 20 31 12 102 25 158 30 55 5 123 18 150 28 27 11 90 22 139 26 50 3
119 16 155 27 36 11 108 24 160 29 52 5 119 18 148 29 34 14 75 21 117 21 40
0 88 8 123 20 31 11 98 25 148 30 49 5 107 16 126 25 20 8 83 21 140 29 57 8
121 21 143 29 23 9 82 20 132 26 51 5 107 18 125 27 19 10 72 21 123 25 50 4
105 15 124 25 18 9 68 20 110 24 42 5 105 18 140 30 35 11 93 24 130 27 36 3
89 16 116 28 31 14 78 24 125 27 42 3 89 12 108 22 18 9 70 21 115 26 46 6
101 18 122 29 22 10 72 21 111 25 39 3 91 15 115 25 24 11 73 23 109 26 36 4
84 16 108 26 24 10 78 23 120 28 42 6 92 17 110 27 19 9 67 20 107 25 41 4 85
15 99 24 14 9 58 21 97 26 40 5 100 20 135 34 34 14 81 25 104 25 22 0 67 11
100 25 33 14 79 25 102 25 24 0 63 10 88 21 25 12 75 25 112 30 37 4 78 15 90
23 13 8 59 22 103 29 44 8 96 22 116 30 20 9 60 19 90 23 30 4 74 17 99 30 27
15 62 24 90 24 25 0 65 10 90 21 25 11 71 25 104 30 32 6 71 16 87 25 16 8 62
21 103 29 41 7 85 21 98 29 13 9 53 20 90 25 36 5 77 16 89 25 13 8 52 19 85
25 34 5 79 18 100 29 22 11 61 23 89 27 27 4 70 18 95 31 25 13 62 24 83 24
21 0 57 9 80 19 23 11 68 24 99 30 32 5 68 17 81 26 13 8 50 20 83 26 32 6 73
19 89 29 17 10 55 22 85 26 30 4 67 16 83 26 15 11 54 23 86 28 32 4 70 15 82
23 13 9 49 20 79 26 30 5 73 19 95 30 21 12 51 21 65 21 14 0 48 11 76 24 28
13 71 27 95 31 24 4 58 15 74 25 17 10 54 23 83 29 29 6 63 17 75 25 12 8 46
19 75 25 29 6 63 17 75 26 12 8 47 19 77 26 30 6 69 19 85 29 17 10 49 21 72
25 23 4 54 16 69 28 15 11 51 24 80 28 30 4 65 17 80 28 15 12 41 21 58 21 17
0 52 11 77 24 25 13 63 28 84 31 22 4 54 16 70 26 17 10 50 21 74 25 24 4 51
16 62 27 12 13 38 23 73 28 30 4 67 16 83 27 15 11 46 23 68 27 22 4 54 15 70
25 17 9 46 20 66 24 19 3 51 17 69 31 19 14 47 25 63 25 15 0 47 11 70 24 23
13 61 27 84 31 23 4 47 13 53 21 7 7 28 16 49 20 20 3 54 17 76 29 22 13 60
28 85 35 25 6 52 18 60 25 8 7 32 16 53 20 20 4 47 15 60 25 12 10 43 23 67
30 25 6 54 20 65 30 11 10 40 21 65 25 25 4 52 13 61 21 8 8 37 20 63 28 26 8
55 21 64 29 10 8 37 20 62 27 25 7 52 20 62 30 9 9 35 20 58 24 24 4 54 16 68
26 13 11 35 20 47 20 12 0 38 11 58 24 20 14 53 29 73 35 20 5 45 17 54 26 10
9 38 21 61 26 24 6 49 18 56 28 7 11 31 21 57 25 24 4 50 13 56 21 7 8 31 20
54 26 22 6 48 17 56 25 9 7 36 20 60 29 24 9 51 22 60 29 8 8 34 19 56 25 23
6 47 18 54 26 6 7 33 21 60 30 27 9 53 22 59 29 6 8 31 19 56 26 24 7 46 18
49 26 3 7 24 18 48 24 24 7 52 20 63 30 11 10 34 21 51 24 18 4 40 16 49 26 9
10 31 22 49 26 17 3 40 14 51 24 11 10 37 23 59 30 21 7 47 21 57 31 11 11 27
19 38 19 10 0 30 9 44 20 14 12 41 26 59 32 18 6 40 17 48 24 8 7 34 20 58 29
23 10 42 21 42 25 0 5 17 14 38 20 20 7 44 18 52 26 8 7 35 22 60 34 83 40
134 70 142 84 5 8 21 17 37 21 16 3 43 17 62 31 18 13 38 24 44 24 6 0 26 11
45 25 19 14 41 25 51 25 9 0 23 7 30 17 8 9 33 25 57 35 23 10 42 23 42 29 0
6 17 17 37 26 21 8 48 24 62 34 13 10 31 19 41 19 9 0 25 9 35 20 9 10 32 24
50 30 18 6 36 18 39 26 3 8 25 24 48 35 42 19 79 41 149 86 19 13 39 23 46 23
6 0 13 5 15 12 5 13 51 42 124 78 23 11 44 27 47 35 4 8 21 21 39 30 56 26
111 62 120 79 5 9 15 16 22 16 7 0 30 14 51 30 21 17 43 30 50 30 6 0 21 10
32 23 11 12 44 36 73 52 29 17 63 40 75 53 12 12 27 22 33 22 5 0 28 15 51 33
82 65 99 77 110 77 6 0 18 11 26 24 9 13 29 29 45 36 17 7 30 15 30 19 0 4 15
15 33 25 34 20 44 28 90 70 15 14 41 33 57 41 17 9 30 20 30 25 0 5 8 11 18
14 9 3 33 19 52 36 19 16 48 40 63 52 16 13 44 37 62 53 18 17 54 46 81 65 27
19 55 41 64 47 43 35 90 77 140 123 30 27 102 91 160 141 243 212 474 438 736
724 20 22 59 67 85 100 47 57 128 149 177 199 12 13 22 26 22 30 0 7 43 62 88
113 12 14 22 29 22 33 0 4 12 21 28 37 15 17 38 47 52 68 14 20 37 52 53 70
15 18 27 37 27 42 0 5 11 20 25 33 14 13 25 27 25 32 0 4 19 35 43 69 23 33
51 75 62 93 11 18 27 44 36 57 9 13 29 46 45 72 16 27 38 60 50 75 12 15 26
43 33 63 6 20 21 45 31 54 11 10 20 24 20 32 0 8 11 31 25 51 14 20 25 42 25
48 0 6 9 23 20 37 12 14 26 41 32 59 6 18 18 42 28 53 9 11 22 39 28 61 7 23
18 44 26 47 8 3 17 21 21 39 4 18 17 49 30 68 13 19 26 51 30 70 4 19 16 46
26 59 11 13 19 34 19 47 0 29 16 72 34 90 8 7 19 35 25 61 5 27 19 66 31 88
11 21 20 51 20 66 0 14 11 46 23 70 13 24 27 64 31 89 4 24 15 63 26 87 10 23
22 68 25 100 4 32 17 81 29 108 20 49 21 62 21 520 0 419 -2 478 -18 544 -10
41 -23 140 -28 220 -6 80 -19 186 -30 235 -11 50 -24 159 -29 241 -6 97 -15
169 -27 204 -17 51 -35 72 -46 54z"/>
<path d="M19732 15891 c4 -13 18 -16 19 -4 0 4 -5 9 -11 12 -7 2 -11 -2 -8 -8z"/>
<path d="M45610 12577 c-58 -56 -148 -138 -200 -181 -52 -44 -106 -90 -120
-103 -24 -23 -150 -124 -199 -160 -13 -10 -36 -30 -50 -44 -15 -14 -40 -34
-56 -43 -17 -9 -50 -32 -75 -51 -25 -19 -55 -39 -66 -44 -12 -5 -24 -17 -27
-25 -4 -9 -19 -22 -34 -28 -15 -7 -41 -23 -56 -35 -16 -13 -35 -23 -42 -23 -8
0 -19 -9 -25 -20 -6 -11 -25 -27 -43 -35 -57 -27 -117 -66 -117 -76 0 -5 -19
-19 -42 -30 -42 -19 -86 -45 -141 -81 -15 -10 -39 -26 -54 -35 -53 -36 -99
-63 -138 -82 -22 -11 -45 -29 -52 -39 -6 -11 -27 -22 -45 -26 -19 -3 -41 -15
-51 -26 -9 -11 -23 -20 -30 -20 -7 0 -29 -11 -49 -25 -20 -14 -44 -25 -52 -25
-8 0 -27 -11 -43 -24 -15 -13 -39 -27 -53 -31 -14 -4 -38 -18 -53 -31 -16 -13
-35 -24 -42 -24 -7 0 -26 -11 -42 -24 -16 -14 -43 -28 -59 -32 -16 -3 -38 -14
-49 -24 -11 -10 -37 -23 -57 -30 -21 -6 -38 -15 -38 -20 0 -4 -19 -15 -42 -25
-24 -9 -50 -22 -58 -29 -8 -7 -30 -18 -48 -24 -18 -6 -46 -20 -61 -32 -16 -11
-36 -20 -44 -20 -8 0 -30 -11 -49 -24 -20 -13 -51 -29 -71 -35 -19 -7 -40 -18
-46 -25 -6 -8 -31 -19 -56 -26 -25 -7 -50 -18 -56 -26 -6 -7 -27 -18 -47 -25
-20 -7 -47 -20 -60 -30 -13 -10 -37 -21 -55 -25 -18 -3 -45 -17 -60 -30 -16
-13 -41 -24 -56 -24 -16 0 -39 -8 -52 -19 -14 -10 -41 -23 -62 -29 -20 -6 -49
-20 -63 -31 -15 -12 -36 -21 -48 -21 -12 0 -37 -11 -56 -24 -19 -13 -49 -26
-66 -30 -17 -4 -46 -18 -65 -32 -18 -13 -45 -24 -60 -24 -14 0 -38 -9 -51 -20
-14 -10 -44 -23 -66 -28 -22 -5 -53 -18 -69 -29 -15 -11 -44 -23 -63 -27 -19
-3 -44 -15 -56 -27 -11 -11 -39 -23 -60 -26 -21 -4 -59 -17 -83 -30 -24 -13
-51 -23 -61 -23 -9 0 -31 -11 -50 -25 -19 -14 -44 -25 -55 -25 -12 0 -42 -11
-66 -23 -24 -13 -61 -27 -81 -31 -20 -3 -48 -16 -62 -27 -14 -11 -43 -23 -63
-26 -21 -4 -58 -17 -82 -30 -24 -13 -54 -23 -66 -23 -11 0 -36 -11 -53 -24
-18 -13 -51 -27 -74 -30 -23 -4 -56 -15 -73 -25 -16 -11 -46 -22 -65 -26 -19
-4 -48 -15 -65 -25 -16 -10 -49 -21 -72 -25 -23 -4 -54 -15 -67 -26 -14 -11
-50 -24 -81 -29 -31 -5 -67 -18 -81 -29 -13 -10 -47 -22 -74 -26 -27 -4 -54
-13 -60 -20 -6 -7 -34 -19 -63 -25 -29 -7 -69 -21 -89 -31 -21 -11 -60 -24
-87 -30 -27 -5 -57 -19 -67 -30 -12 -13 -30 -19 -59 -19 -28 0 -54 -8 -77 -24
-20 -13 -59 -27 -87 -31 -28 -4 -62 -16 -76 -27 -14 -11 -50 -23 -79 -27 -30
-4 -67 -16 -82 -26 -16 -10 -53 -22 -82 -26 -30 -4 -62 -15 -73 -25 -11 -10
-45 -21 -76 -25 -31 -4 -69 -17 -84 -28 -15 -11 -51 -23 -80 -27 -30 -4 -70
-15 -89 -24 -19 -10 -55 -21 -80 -25 -25 -4 -62 -16 -83 -27 -21 -10 -63 -23
-93 -29 -30 -6 -69 -18 -87 -29 -18 -10 -54 -21 -80 -25 -27 -3 -63 -15 -80
-25 -18 -10 -60 -23 -95 -29 -35 -6 -74 -19 -89 -30 -17 -14 -40 -21 -72 -21
-27 0 -62 -8 -82 -19 -20 -11 -65 -25 -100 -31 -35 -6 -78 -20 -95 -30 -17
-10 -56 -21 -85 -25 -30 -4 -70 -15 -89 -25 -19 -9 -57 -21 -85 -25 -27 -4
-74 -18 -103 -31 -29 -13 -68 -24 -88 -24 -19 0 -60 -11 -92 -24 -31 -13 -81
-26 -110 -30 -28 -4 -67 -15 -85 -26 -18 -11 -59 -22 -92 -26 -33 -4 -77 -15
-97 -25 -20 -11 -67 -23 -104 -28 -38 -6 -74 -17 -86 -27 -12 -12 -44 -21 -91
-25 -43 -4 -87 -15 -107 -27 -20 -11 -62 -22 -96 -25 -33 -3 -79 -14 -102 -26
-23 -12 -73 -26 -110 -31 -37 -5 -91 -18 -120 -29 -29 -12 -69 -21 -90 -21
-20 0 -57 -10 -82 -21 -25 -12 -77 -25 -117 -29 -39 -5 -86 -16 -104 -25 -18
-10 -64 -21 -103 -27 -39 -5 -91 -18 -116 -29 -25 -11 -76 -24 -115 -29 -38
-4 -90 -17 -115 -29 -26 -12 -66 -21 -95 -21 -31 0 -69 -9 -100 -23 -30 -14
-79 -26 -122 -30 -39 -3 -85 -13 -102 -22 -17 -8 -73 -22 -123 -30 -51 -7
-111 -21 -133 -31 -22 -9 -74 -20 -115 -25 -41 -4 -88 -14 -105 -23 -16 -8
-66 -19 -110 -25 -44 -6 -102 -19 -130 -29 -27 -11 -83 -22 -123 -26 -41 -3
-87 -13 -103 -22 -16 -8 -67 -20 -112 -25 -45 -6 -107 -20 -137 -31 -30 -11
-94 -24 -141 -28 -47 -4 -100 -15 -118 -25 -18 -9 -72 -20 -120 -25 -48 -5
-104 -17 -125 -25 -21 -9 -80 -21 -130 -26 -50 -6 -123 -21 -163 -35 -42 -14
-94 -24 -127 -24 -33 0 -81 -9 -114 -21 -31 -12 -96 -24 -143 -29 -47 -4 -112
-17 -145 -28 -32 -11 -96 -23 -140 -26 -45 -3 -99 -12 -120 -20 -53 -20 -136
-36 -188 -36 -24 0 -72 -10 -107 -21 -35 -12 -107 -25 -159 -29 -52 -5 -112
-16 -132 -24 -20 -9 -86 -20 -145 -25 -59 -6 -128 -17 -153 -26 -25 -9 -92
-20 -150 -26 -58 -5 -125 -16 -150 -24 -63 -20 -155 -35 -211 -35 -26 0 -76
-9 -112 -20 -35 -11 -118 -24 -184 -30 -66 -5 -136 -16 -156 -25 -21 -8 -97
-20 -169 -26 -73 -6 -141 -15 -151 -21 -26 -13 -180 -38 -242 -38 -28 0 -82
-9 -120 -21 -43 -12 -123 -24 -205 -29 -77 -5 -154 -16 -180 -26 -26 -9 -102
-20 -181 -25 -75 -4 -149 -13 -165 -19 -44 -17 -127 -29 -244 -36 -58 -3 -121
-10 -140 -15 -87 -24 -192 -39 -275 -39 -87 -1 -125 -6 -210 -30 -22 -6 -110
-15 -196 -20 -88 -5 -180 -15 -210 -24 -32 -10 -129 -21 -234 -27 -99 -6 -202
-17 -230 -24 -77 -22 -196 -35 -313 -35 -59 -1 -125 -5 -147 -9 -22 -5 -65
-14 -95 -20 -30 -7 -145 -16 -255 -21 -121 -6 -222 -16 -255 -25 -37 -10 -138
-19 -305 -25 -156 -6 -273 -15 -310 -25 -74 -18 -297 -35 -471 -35 -73 0 -171
-7 -220 -15 -111 -20 -340 -34 -549 -35 -153 -1 -276 -9 -430 -30 -38 -5 -338
-14 -665 -20 -356 -6 -611 -15 -635 -21 -59 -16 -1493 -24 -1705 -9 -91 6
-381 15 -645 20 -559 10 -633 14 -658 41 -10 11 -24 19 -32 19 -23 0 -38 36
-25 60 8 15 21 20 51 20 33 0 41 4 49 24 5 13 18 27 29 31 11 3 23 15 26 25 3
10 14 22 24 25 10 3 23 17 29 30 9 20 19 25 48 25 29 0 43 8 75 41 21 22 39
44 39 48 0 4 11 13 25 19 14 6 25 18 25 26 0 16 21 26 56 26 17 0 42 18 79 55
45 46 59 55 89 55 26 0 36 4 36 15 0 9 10 20 23 26 13 6 27 20 32 32 8 17 20
23 53 25 35 3 45 8 52 28 5 13 16 24 24 24 9 0 21 10 27 23 16 30 28 37 65 37
23 0 36 7 48 25 12 18 25 25 47 25 24 0 42 11 79 50 40 42 54 50 84 50 29 0
38 5 45 24 11 26 30 36 71 36 19 0 31 6 35 18 3 11 17 24 30 30 14 6 25 18 25
26 0 16 21 26 57 26 15 0 36 12 53 30 19 21 38 30 59 30 20 0 34 7 41 19 5 11
18 22 28 25 9 3 22 16 27 28 8 18 20 24 51 26 32 2 44 8 52 28 10 20 19 24 51
24 32 0 43 5 52 23 16 30 28 37 65 37 23 0 36 7 48 25 13 19 25 25 54 25 29 0
39 5 47 23 8 17 20 23 53 25 35 3 45 8 52 28 l10 24 210 0 210 0 16 -25 16
-25 507 0 c278 0 511 -4 517 -8 6 -4 13 -15 17 -24 6 -16 26 -18 222 -18 198
0 252 7 196 25 -11 3 -23 15 -26 26 -6 18 -18 19 -303 19 -163 0 -302 4 -308
8 -6 4 -16 17 -23 30 l-12 22 -330 0 -329 0 -10 25 -10 25 -355 0 -355 0 -16
25 -16 25 -348 0 c-358 0 -367 1 -382 38 -1 5 -163 12 -358 15 l-354 6 -19 25
-19 26 -379 0 -379 0 -12 25 -11 25 -1246 0 -1246 0 -10 -22 c-10 -22 -14 -23
-182 -26 -170 -2 -171 -3 -187 -27 -16 -25 -19 -25 -154 -25 l-138 0 -26 -30
c-25 -29 -29 -30 -111 -30 -79 0 -86 -2 -101 -25 -15 -22 -23 -25 -80 -25 -57
0 -65 -3 -80 -25 -15 -22 -24 -25 -76 -25 -52 0 -61 -3 -76 -25 -14 -22 -23
-25 -78 -25 -58 0 -64 -2 -84 -30 -21 -28 -27 -30 -87 -30 -50 0 -65 -3 -65
-15 0 -19 -31 -35 -70 -35 -20 0 -33 -6 -37 -17 -9 -25 -23 -33 -59 -33 -23 0
-36 -7 -48 -25 -12 -18 -25 -25 -49 -25 -24 0 -40 -8 -59 -30 -20 -23 -35 -30
-62 -30 -38 0 -49 -18 -17 -27 10 -2 23 -15 29 -28 6 -13 20 -26 31 -30 12 -3
21 -13 21 -21 0 -8 11 -20 25 -26 13 -6 27 -19 30 -29 3 -10 14 -21 24 -24 10
-3 23 -17 29 -30 6 -14 18 -25 25 -25 8 0 19 -11 25 -24 6 -13 20 -27 31 -31
12 -3 21 -13 21 -21 0 -8 11 -20 25 -26 13 -6 27 -19 30 -29 3 -10 14 -21 24
-24 10 -3 23 -17 29 -30 6 -14 19 -25 27 -25 9 0 20 -11 25 -25 5 -14 15 -25
21 -25 7 0 34 -22 61 -50 27 -27 55 -50 63 -50 8 0 17 -11 21 -24 3 -13 15
-26 26 -29 11 -3 22 -14 25 -25 3 -11 14 -22 25 -25 11 -3 22 -14 24 -24 3
-10 18 -26 35 -35 16 -9 29 -24 29 -31 0 -8 9 -17 21 -20 11 -3 23 -14 26 -25
3 -11 14 -22 25 -25 11 -3 22 -14 25 -25 2 -11 16 -25 29 -31 13 -6 24 -18 24
-26 0 -9 12 -20 26 -25 14 -6 28 -19 31 -29 3 -11 14 -21 25 -24 11 -3 22 -14
25 -25 3 -11 14 -22 25 -25 11 -3 22 -15 25 -26 4 -15 13 -21 32 -21 47 0 71
-12 77 -36 4 -15 14 -24 25 -24 11 0 21 -9 25 -24 3 -15 15 -27 30 -30 15 -4
24 -14 24 -25 0 -12 9 -21 24 -25 14 -3 26 -16 30 -30 4 -15 14 -26 29 -28 14
-2 23 -11 25 -25 2 -14 10 -23 21 -23 10 0 28 -11 40 -24 13 -14 36 -30 52
-36 16 -7 29 -16 29 -21 0 -5 16 -15 35 -23 19 -8 35 -22 35 -31 0 -8 11 -20
24 -25 13 -5 27 -18 31 -29 3 -12 14 -21 24 -21 10 0 31 -12 46 -26 15 -14 38
-30 51 -35 13 -4 24 -15 24 -24 0 -8 12 -18 26 -21 14 -4 30 -17 34 -30 5 -13
18 -24 28 -24 10 0 29 -11 41 -24 13 -14 36 -30 52 -36 16 -7 29 -18 29 -26 0
-7 9 -16 20 -19 11 -4 28 -17 36 -31 9 -13 25 -24 35 -24 11 0 22 -7 26 -15 3
-9 20 -23 37 -31 17 -9 40 -24 51 -34 11 -10 33 -30 49 -45 15 -14 39 -30 52
-35 13 -5 24 -16 24 -24 0 -8 16 -20 35 -26 19 -6 41 -20 47 -29 7 -10 23 -21
35 -25 12 -4 24 -15 27 -24 3 -10 19 -23 36 -29 16 -6 30 -18 30 -26 0 -8 10
-17 23 -21 12 -3 35 -17 51 -30 16 -14 37 -28 47 -31 10 -3 21 -15 24 -25 3
-10 16 -20 28 -22 12 -2 26 -12 31 -24 5 -11 21 -26 35 -32 30 -14 87 -53 116
-80 11 -11 28 -22 38 -26 11 -3 21 -15 24 -26 3 -11 11 -20 18 -20 11 0 42
-21 119 -82 16 -13 38 -26 49 -31 10 -4 21 -16 24 -27 3 -11 14 -20 24 -20 10
0 26 -11 35 -25 9 -14 22 -25 29 -25 7 0 29 -13 50 -30 21 -16 44 -30 52 -30
7 0 18 -11 23 -25 5 -14 16 -25 25 -25 8 0 21 -11 27 -25 9 -20 18 -25 50 -25
31 0 41 -5 50 -25 6 -13 20 -27 30 -31 11 -3 23 -17 28 -30 8 -20 16 -24 50
-24 33 0 42 -4 51 -24 6 -13 20 -27 31 -29 11 -3 22 -15 25 -26 4 -16 13 -21
42 -21 41 0 55 -7 64 -32 3 -10 17 -18 29 -18 42 0 69 -13 78 -35 9 -24 11
-24 229 -60 65 -10 168 -15 325 -15 337 -1 824 -17 1031 -35 150 -12 411 -15
1547 -15 776 0 1377 4 1390 9 33 12 449 31 948 41 234 5 446 14 472 19 55 12
427 31 618 31 127 1 169 4 330 29 36 6 197 15 357 20 161 5 297 12 303 16 23
14 140 26 360 35 130 6 251 15 270 20 59 18 280 40 390 40 58 0 121 5 140 10
62 18 171 31 335 40 88 4 187 15 220 24 33 9 137 20 230 26 102 6 187 16 213
25 25 9 110 19 206 25 91 5 177 15 193 21 43 16 127 28 243 35 58 3 139 15
180 26 41 11 134 23 205 28 72 5 153 16 180 25 28 9 104 20 171 25 66 4 142
15 168 24 26 9 102 21 168 26 66 6 150 19 187 31 37 11 107 22 161 25 58 3
118 13 155 26 34 11 106 24 165 29 58 4 125 15 150 24 25 10 90 21 145 25 55
5 116 15 136 24 20 8 82 20 138 25 56 6 111 15 121 21 28 15 155 40 203 40 23
0 77 11 120 25 46 15 101 25 136 25 38 0 82 9 125 25 41 16 87 25 121 25 31 0
86 10 127 24 40 13 102 27 138 30 36 3 90 14 120 25 30 11 84 22 120 26 36 4
90 15 121 25 31 11 88 22 125 26 38 4 92 16 119 27 28 10 84 23 126 27 42 5
94 17 115 28 22 10 71 22 110 26 39 3 91 15 115 25 24 11 73 23 109 27 36 3
85 15 110 25 25 11 77 23 116 28 39 5 85 16 102 25 17 9 62 20 99 26 38 5 89
18 114 29 24 10 71 22 104 26 33 4 79 15 102 26 22 10 67 22 100 25 32 4 74
15 93 24 19 10 67 23 107 29 39 6 87 19 105 30 18 10 58 21 88 24 30 3 75 14
100 25 25 11 68 24 95 27 28 4 70 18 95 31 27 15 62 24 90 24 27 1 65 10 95
25 28 14 66 25 86 25 20 0 57 11 83 25 26 14 64 25 84 25 20 0 60 11 89 24 29
14 74 28 100 32 26 4 64 15 84 26 20 10 61 23 92 28 31 5 68 17 82 26 15 10
52 21 83 25 30 4 68 17 83 28 17 13 44 21 66 21 21 0 61 11 89 24 28 13 70 27
94 31 24 4 66 18 94 31 28 13 62 24 76 24 14 0 48 12 75 25 28 14 61 25 75 25
14 0 44 9 65 20 22 12 63 26 90 32 28 5 64 18 80 28 17 10 54 23 82 29 29 6
62 20 73 31 14 14 33 20 64 20 29 0 55 8 78 23 19 13 54 27 78 31 24 4 58 15
75 26 16 10 48 21 70 25 22 4 54 15 70 25 17 9 52 23 78 29 27 6 59 18 70 26
12 8 44 19 71 25 27 6 59 19 73 30 13 10 43 21 66 25 23 4 56 15 72 25 17 10
47 21 67 25 20 4 51 18 69 31 18 13 46 24 62 24 15 0 47 11 70 24 23 13 58 26
77 30 19 3 44 15 56 27 11 11 39 23 60 26 21 4 59 17 83 30 24 13 52 23 61 23
10 0 30 10 45 21 15 12 47 26 71 30 24 5 56 17 71 28 16 10 44 22 64 25 21 4
42 13 49 21 7 8 35 22 62 30 27 8 60 23 75 35 14 11 38 20 53 20 15 0 38 9 52
19 13 11 38 23 54 27 16 4 47 17 69 29 22 13 54 26 71 30 18 3 40 15 49 25 10
11 33 22 51 26 18 3 47 17 65 30 18 13 43 24 55 24 12 0 35 11 51 24 15 13 47
27 70 31 23 3 47 13 53 20 6 8 33 21 60 30 27 9 54 22 60 30 6 8 26 17 43 20
18 4 41 15 52 25 11 10 37 23 57 28 21 6 50 20 64 31 15 12 34 21 44 21 10 0
29 9 43 20 14 12 41 26 59 32 18 6 40 17 48 24 9 7 35 20 59 29 23 8 54 24 68
35 14 11 33 20 43 20 10 0 28 9 42 19 14 11 43 27 66 36 23 10 42 21 42 25 0
5 16 14 36 20 20 7 52 23 72 36 19 13 43 24 52 24 10 0 25 11 33 24 10 15 30
26 54 31 20 4 43 15 50 25 7 10 26 21 42 25 16 3 43 17 62 31 18 13 38 24 44
24 6 0 26 11 45 25 19 14 40 25 48 25 8 0 27 11 44 25 16 14 36 25 43 25 8 0
28 14 45 30 17 17 39 30 49 30 10 0 30 9 44 20 14 12 40 25 57 31 16 6 30 14
30 19 0 4 15 13 33 20 17 7 41 21 52 31 11 10 37 25 58 34 20 8 37 19 37 24 0
5 15 14 33 22 17 7 45 23 60 36 16 13 35 23 42 23 8 0 20 9 28 20 7 11 31 27
52 36 21 8 44 22 52 30 8 8 20 14 27 14 7 0 21 9 33 19 11 10 34 26 52 35 18
10 41 26 52 37 10 10 25 19 33 19 7 0 19 7 27 16 7 8 29 24 48 35 34 19 94 58
117 78 6 5 26 17 45 26 19 10 40 26 47 36 7 11 19 19 27 19 7 0 21 8 31 18 9
9 32 26 49 37 38 23 94 62 150 104 22 17 52 37 67 46 15 8 38 25 51 38 14 12
41 33 62 47 20 14 52 37 70 53 18 15 38 27 43 27 6 0 16 9 22 19 5 11 21 26
34 33 14 7 52 34 85 61 34 26 65 47 70 47 5 0 16 11 25 25 9 14 21 25 27 25 6
0 23 12 39 28 15 15 40 37 56 49 30 22 98 76 146 116 15 12 53 45 85 74 32 29
65 58 73 65 270 229 683 631 862 839 85 99 120 138 152 171 20 20 36 41 36 46
0 5 12 21 28 35 33 32 59 64 113 137 23 30 44 57 49 60 4 3 13 16 20 30 7 13
24 33 37 43 12 10 23 23 23 29 0 9 26 43 74 100 8 9 22 30 30 46 8 16 22 32
31 35 8 4 15 13 15 20 0 8 14 31 30 52 17 21 30 44 30 51 0 7 9 19 21 27 20
14 41 47 73 114 9 18 27 43 41 57 14 14 25 30 25 37 0 6 11 24 25 41 14 16 25
35 25 42 0 7 11 27 25 46 14 19 25 42 25 51 0 10 11 26 25 37 14 11 25 26 25
35 0 8 11 31 25 51 14 20 25 40 25 45 0 4 14 28 31 54 32 49 37 100 9 104 -8
2 -62 -43 -120 -100z"/>
<path d="M38290 4435 c-19 -14 -47 -25 -64 -25 -16 0 -48 -11 -70 -24 -23 -13
-59 -28 -81 -32 -22 -4 -51 -15 -64 -25 -13 -11 -34 -19 -46 -19 -12 0 -47
-13 -78 -30 -31 -16 -68 -30 -83 -30 -14 0 -44 -11 -67 -24 -23 -13 -59 -27
-80 -30 -21 -4 -52 -15 -70 -25 -18 -11 -48 -22 -68 -25 -21 -4 -49 -16 -63
-27 -14 -11 -51 -24 -82 -29 -31 -5 -65 -17 -75 -26 -9 -8 -37 -18 -61 -21
-24 -3 -61 -16 -83 -28 -22 -13 -60 -26 -84 -30 -24 -4 -58 -16 -75 -26 -17
-10 -51 -21 -75 -25 -25 -4 -65 -18 -90 -30 -24 -13 -56 -24 -70 -24 -14 0
-48 -12 -76 -25 -27 -14 -61 -25 -74 -25 -13 0 -47 -11 -75 -24 -28 -13 -71
-27 -96 -31 -25 -4 -59 -16 -76 -26 -17 -10 -53 -22 -80 -25 -27 -4 -69 -17
-94 -30 -25 -13 -61 -24 -80 -24 -19 0 -52 -9 -71 -19 -20 -11 -64 -25 -99
-31 -34 -6 -78 -20 -98 -30 -20 -10 -59 -22 -87 -26 -27 -4 -69 -18 -94 -30
-24 -14 -61 -24 -83 -24 -22 0 -60 -9 -85 -21 -26 -12 -73 -25 -105 -29 -32
-5 -73 -17 -91 -28 -17 -11 -57 -22 -87 -25 -30 -3 -76 -15 -103 -27 -26 -11
-71 -23 -100 -27 -28 -3 -80 -16 -114 -29 -34 -13 -79 -24 -100 -24 -21 0 -58
-10 -83 -21 -25 -11 -74 -24 -111 -28 -36 -5 -79 -16 -96 -24 -16 -9 -61 -21
-99 -27 -38 -6 -90 -20 -116 -31 -26 -10 -76 -22 -110 -25 -35 -4 -82 -15
-106 -26 -24 -10 -78 -23 -120 -28 -42 -5 -95 -18 -117 -28 -23 -11 -72 -22
-116 -25 -42 -3 -91 -13 -108 -21 -17 -9 -75 -23 -128 -30 -54 -8 -118 -24
-143 -35 -30 -14 -66 -21 -107 -21 -40 0 -81 -8 -115 -21 -30 -12 -92 -25
-143 -30 -50 -4 -110 -16 -135 -27 -26 -11 -81 -21 -131 -25 -47 -3 -113 -15
-146 -26 -34 -11 -105 -25 -159 -30 -55 -6 -119 -18 -144 -27 -25 -9 -90 -20
-145 -24 -55 -4 -122 -15 -150 -25 -28 -10 -99 -21 -162 -25 -61 -4 -133 -15
-160 -24 -26 -9 -111 -23 -188 -30 -77 -8 -165 -22 -195 -31 -30 -8 -113 -20
-185 -25 -71 -6 -155 -17 -185 -26 -30 -8 -120 -19 -200 -24 -80 -5 -167 -17
-195 -25 -29 -9 -121 -20 -220 -25 -93 -6 -199 -16 -235 -24 -126 -27 -198
-36 -307 -36 -67 0 -151 -8 -219 -20 -73 -14 -188 -24 -349 -30 -132 -6 -258
-14 -280 -20 -56 -13 -296 -28 -590 -36 -137 -3 -268 -9 -290 -13 -22 -3 -60
-1 -85 5 -38 9 -46 15 -48 38 -5 38 14 56 58 56 30 0 39 5 48 25 10 21 19 25
52 25 33 0 42 4 49 24 12 30 29 36 99 36 50 0 59 3 67 23 8 17 20 23 51 25 32
2 44 8 52 28 11 22 17 24 81 24 64 0 69 2 75 24 7 27 30 36 104 36 39 0 52 4
52 15 0 23 34 35 99 35 53 0 61 2 61 19 0 22 19 31 65 31 25 0 34 5 38 21 3
11 15 23 26 26 51 13 13 23 -88 23 -106 0 -109 -1 -115 -24 -8 -32 -27 -36
-206 -36 -125 0 -160 3 -178 16 -12 8 -22 22 -22 30 0 12 -29 14 -175 14
l-175 0 -12 25 -11 25 -193 0 c-162 0 -195 3 -208 16 -9 8 -16 20 -16 25 0 5
-89 9 -214 9 -118 0 -222 3 -231 6 -9 4 -21 17 -26 30 l-9 24 -280 0 -280 0
-10 25 -10 25 -1108 0 -1109 0 -11 -25 c-12 -25 -12 -25 -157 -25 -144 0 -146
0 -156 -24 -14 -30 -34 -36 -131 -36 -62 0 -78 -3 -78 -15 0 -23 -34 -35 -97
-35 -51 0 -60 -3 -68 -22 -8 -18 -20 -24 -51 -26 -32 -2 -44 -8 -52 -28 -7
-13 -19 -24 -27 -24 -9 0 -20 -11 -25 -24 -5 -13 -18 -27 -29 -31 -32 -10 -29
-63 4 -75 14 -5 25 -16 25 -25 0 -9 11 -20 24 -25 13 -5 27 -18 31 -29 3 -11
15 -23 25 -26 10 -3 22 -15 25 -26 5 -16 16 -19 58 -19 74 0 96 -8 104 -37 6
-25 8 -25 65 -19 79 8 139 -2 145 -24 5 -18 63 -30 151 -30 32 0 47 -6 64 -25
19 -23 29 -25 97 -25 82 0 92 -4 110 -38 11 -20 19 -22 102 -22 86 0 90 -1
101 -25 11 -24 15 -25 99 -25 66 0 91 -4 103 -16 9 -8 16 -20 16 -25 0 -5 49
-9 109 -9 124 0 139 -4 152 -36 8 -23 12 -24 129 -24 119 0 121 0 132 -25 11
-25 11 -25 154 -25 142 0 144 0 160 -25 16 -25 18 -25 154 -25 113 0 142 -3
154 -16 9 -8 16 -20 16 -25 0 -5 70 -9 166 -9 l166 0 26 -30 26 -30 218 0 218
0 16 -25 16 -25 265 0 c264 0 303 -5 303 -35 0 -16 338 -20 1765 -20 538 0
625 2 735 18 69 10 144 23 167 28 23 5 110 9 193 9 135 0 180 5 325 34 17 4
107 10 200 15 99 5 195 16 230 26 33 9 128 20 210 25 83 5 172 16 199 25 26 8
109 20 184 26 84 7 167 20 216 35 55 17 104 24 160 24 52 0 106 7 151 20 39
11 115 25 170 30 55 5 118 17 140 26 23 10 85 20 142 25 69 5 117 14 145 27
29 14 72 22 133 26 87 4 112 11 165 41 16 9 53 15 101 15 68 0 78 3 99 25 22
23 31 25 111 25 81 0 88 2 103 25 16 24 22 25 105 25 84 0 90 1 105 25 15 24
22 25 104 25 86 0 89 1 110 30 21 27 28 30 81 30 52 0 61 3 75 25 16 24 22 25
105 25 84 0 90 1 105 25 15 22 23 25 79 25 59 0 65 2 85 30 20 27 28 30 79 30
47 0 59 4 79 25 20 21 32 25 82 25 53 0 62 3 76 25 15 22 24 25 76 25 52 0 61
3 76 25 14 22 23 25 78 25 58 0 64 2 84 30 20 27 28 30 79 30 47 0 59 4 79 25
20 21 32 25 82 25 53 0 62 3 76 25 12 19 25 25 51 25 26 0 39 6 51 25 14 22
23 25 78 25 58 0 64 2 84 30 21 27 28 30 81 30 52 0 61 3 75 25 13 20 25 25
56 25 22 0 40 4 40 9 0 25 34 41 88 41 51 0 60 3 84 30 17 20 36 30 53 30 17
0 37 10 51 25 16 18 34 25 59 25 19 0 35 4 35 9 0 26 34 41 90 41 52 0 62 3
76 25 12 18 25 25 48 25 23 0 39 9 58 30 19 22 35 30 58 30 22 0 38 8 52 25
14 18 29 25 53 25 24 0 37 7 49 25 12 19 25 25 51 25 26 0 39 6 51 25 12 18
25 25 48 25 24 0 40 8 59 30 24 27 33 30 86 30 52 0 61 3 75 25 12 19 25 25
51 25 26 0 39 6 51 25 13 20 25 25 55 25 32 0 41 5 51 25 9 20 19 25 47 25 31
0 43 8 86 55 41 45 55 55 82 55 24 0 37 7 49 25 12 18 25 25 48 25 23 0 39 9
58 30 19 22 35 30 58 30 22 0 38 8 52 25 14 18 29 25 53 25 24 0 37 7 49 25
12 19 25 25 51 25 26 0 39 6 51 25 12 18 25 25 48 25 25 0 42 11 84 55 44 45
59 55 87 55 24 0 37 7 49 25 12 18 25 25 47 25 23 0 42 10 70 39 22 21 39 43
39 48 0 5 12 15 26 21 14 7 22 17 19 22 -10 17 -40 11 -75 -15z"/>
</g>
</svg>
